<svg xmlns="http://www.w3.org/2000/svg" xmlns:xlink="http://www.w3.org/1999/xlink" viewBox="0 0 1522.71 1667.94" >
  <defs>
    <style>
      .cls-1 {
        fill: url(#linear-gradient);
      }

      .cls-2 {
        fill: url(#linear-gradient-2);
      }

      .cls-3 {
        fill: url(#linear-gradient-3);
      }

      .cls-4 {
        fill: url(#linear-gradient-4);
      }

      .cls-5 {
        fill: url(#linear-gradient-5);
      }

      .cls-6 {
        fill: url(#linear-gradient-6);
      }

      .cls-7 {
        fill: url(#linear-gradient-7);
      }

      .cls-8 {
        fill: url(#linear-gradient-8);
      }

      .cls-9 {
        fill: url(#linear-gradient-9);
      }

      .cls-10 {
        fill: url(#linear-gradient-10);
      }

      .cls-11 {
        fill: url(#linear-gradient-11);
      }

      .cls-12 {
        fill: url(#linear-gradient-12);
      }

      .cls-13 {
        fill: url(#linear-gradient-13);
      }

      .cls-14 {
        fill: url(#linear-gradient-14);
      }

      .cls-15 {
        fill: url(#linear-gradient-15);
      }

      .cls-16 {
        fill: url(#linear-gradient-16);
      }

      .cls-17 {
        fill: url(#linear-gradient-17);
      }

      .cls-18 {
        fill: url(#linear-gradient-18);
      }

      .cls-19 {
        fill: url(#linear-gradient-19);
      }

      .cls-20 {
        fill: url(#linear-gradient-20);
      }

      .cls-21 {
        fill: #e0a74c;
      }

      .cls-22 {
        fill: url(#linear-gradient-21);
      }

      .cls-23 {
        fill: url(#linear-gradient-22);
      }

      .cls-24 {
        fill: url(#linear-gradient-23);
      }

      .cls-25 {
        fill: url(#linear-gradient-24);
      }

      .cls-26 {
        fill: url(#linear-gradient-25);
      }

      .cls-27 {
        fill: url(#linear-gradient-26);
      }

      .cls-28 {
        fill: url(#linear-gradient-27);
      }

      .cls-29 {
        fill: url(#linear-gradient-28);
      }

      .cls-30 {
        fill: url(#linear-gradient-29);
      }

      .cls-31 {
        fill: url(#linear-gradient-30);
      }

      .cls-32 {
        fill: url(#linear-gradient-31);
      }

      .cls-33 {
        fill: url(#linear-gradient-32);
      }

      .cls-34 {
        fill: url(#linear-gradient-33);
      }

      .cls-35 {
        fill: url(#linear-gradient-34);
      }

      .cls-36 {
        fill: url(#linear-gradient-35);
      }

      .cls-37 {
        fill: url(#linear-gradient-36);
      }

      .cls-38 {
        fill: url(#linear-gradient-37);
      }

      .cls-39 {
        fill: url(#linear-gradient-38);
      }

      .cls-40 {
        fill: url(#linear-gradient-39);
      }

      .cls-41 {
        fill: url(#linear-gradient-40);
      }

      .cls-42 {
        fill: url(#linear-gradient-41);
      }

      .cls-43 {
        fill: url(#linear-gradient-42);
      }

      .cls-44 {
        fill: url(#linear-gradient-43);
      }

      .cls-45 {
        fill: url(#linear-gradient-44);
      }

      .cls-46 {
        fill: url(#linear-gradient-45);
      }

      .cls-47 {
        fill: url(#linear-gradient-46);
      }

      .cls-48 {
        fill: url(#linear-gradient-47);
      }

      .cls-49 {
        fill: url(#linear-gradient-48);
      }

      .cls-50 {
        fill: url(#linear-gradient-49);
      }

      .cls-51 {
        fill: url(#linear-gradient-50);
      }

      .cls-52 {
        fill: url(#linear-gradient-51);
      }

      .cls-53 {
        fill: url(#linear-gradient-52);
      }

      .cls-54 {
        fill: url(#linear-gradient-53);
      }

      .cls-55 {
        fill: url(#linear-gradient-54);
      }

      .cls-56 {
        fill: url(#linear-gradient-55);
      }

      .cls-57 {
        fill: url(#linear-gradient-56);
      }

      .cls-58 {
        fill: url(#linear-gradient-57);
      }

      .cls-59 {
        fill: url(#linear-gradient-58);
      }

      .cls-60 {
        fill: url(#linear-gradient-59);
      }

      .cls-61 {
        fill: url(#linear-gradient-60);
      }

      .cls-62 {
        fill: url(#linear-gradient-61);
      }

      .cls-63 {
        fill: url(#linear-gradient-62);
      }

      .cls-64 {
        fill: url(#linear-gradient-63);
      }

      .cls-65 {
        fill: url(#linear-gradient-64);
      }

      .cls-66 {
        fill: url(#linear-gradient-65);
      }

      .cls-67 {
        fill: url(#linear-gradient-66);
      }

      .cls-68 {
        fill: url(#linear-gradient-67);
      }

      .cls-69 {
        fill: url(#linear-gradient-68);
      }

      .cls-70 {
        fill: url(#linear-gradient-69);
      }

      .cls-71 {
        fill: url(#linear-gradient-70);
      }

      .cls-72 {
        fill: url(#linear-gradient-71);
      }

      .cls-73 {
        fill: url(#linear-gradient-72);
      }

      .cls-74 {
        fill: url(#linear-gradient-73);
      }

      .cls-75 {
        fill: url(#linear-gradient-74);
      }

      .cls-76 {
        fill: url(#linear-gradient-75);
      }

      .cls-77 {
        fill: url(#linear-gradient-76);
      }

      .cls-78 {
        fill: url(#linear-gradient-77);
      }

      .cls-79 {
        fill: url(#linear-gradient-78);
      }

      .cls-80 {
        fill: url(#linear-gradient-79);
      }

      .cls-81 {
        fill: url(#linear-gradient-80);
      }

      .cls-82 {
        fill: url(#linear-gradient-81);
      }

      .cls-83 {
        fill: url(#linear-gradient-82);
      }

      .cls-84 {
        fill: url(#linear-gradient-83);
      }

      .cls-85 {
        fill: url(#linear-gradient-84);
      }

      .cls-86 {
        fill: url(#linear-gradient-85);
      }

      .cls-87 {
        fill: url(#linear-gradient-86);
      }

      .cls-88 {
        fill: url(#linear-gradient-87);
      }

      .cls-89 {
        fill: url(#linear-gradient-88);
      }

      .cls-90 {
        fill: url(#linear-gradient-89);
      }

      .cls-91 {
        fill: url(#linear-gradient-90);
      }

      .cls-92 {
        fill: url(#linear-gradient-91);
      }

      .cls-93 {
        fill: url(#linear-gradient-92);
      }

      .cls-94 {
        fill: url(#linear-gradient-93);
      }

      .cls-95 {
        fill: url(#linear-gradient-94);
      }

      .cls-96 {
        fill: url(#linear-gradient-95);
      }

      .cls-97 {
        fill: #05f;
      }

      .cls-98 {
        fill: url(#linear-gradient-96);
      }

      .cls-99 {
        fill: url(#linear-gradient-97);
      }

      .cls-100 {
        fill: url(#linear-gradient-98);
      }

      .cls-101 {
        fill: url(#linear-gradient-99);
      }

      .cls-102 {
        fill: url(#linear-gradient-100);
      }

      .cls-103 {
        fill: url(#linear-gradient-101);
      }

      .cls-104 {
        fill: url(#linear-gradient-102);
      }

      .cls-105 {
        fill: url(#New_Gradient_Swatch_9);
      }

      .cls-106 {
        fill: url(#New_Gradient_Swatch_9-2);
      }

      .cls-107 {
        fill: url(#New_Gradient_Swatch_9-3);
      }

      .cls-108 {
        fill: url(#New_Gradient_Swatch_9-4);
      }

      .cls-109 {
        fill: url(#New_Gradient_Swatch_9-5);
      }

      .cls-110 {
        fill: url(#New_Gradient_Swatch_9-6);
      }

      .cls-111 {
        fill: url(#New_Gradient_Swatch_9-7);
      }

      .cls-112 {
        fill: url(#New_Gradient_Swatch_9-8);
      }

      .cls-113 {
        fill: url(#New_Gradient_Swatch_9-9);
      }

      .cls-114 {
        fill: url(#New_Gradient_Swatch_9-10);
      }

      .cls-115 {
        fill: url(#New_Gradient_Swatch_9-11);
      }

      .cls-116 {
        fill: url(#New_Gradient_Swatch_9-12);
      }

      .cls-117 {
        fill: url(#New_Gradient_Swatch_9-13);
      }

      .cls-118 {
        fill: url(#New_Gradient_Swatch_9-14);
      }

      .cls-119 {
        fill: url(#New_Gradient_Swatch_9-15);
      }

      .cls-120 {
        fill: url(#New_Gradient_Swatch_9-16);
      }

      .cls-121 {
        fill: url(#New_Gradient_Swatch_9-17);
      }

      .cls-122 {
        fill: url(#New_Gradient_Swatch_9-18);
      }

      .cls-123 {
        fill: url(#New_Gradient_Swatch_9-19);
      }

      .cls-124 {
        fill: url(#New_Gradient_Swatch_9-20);
      }

      .cls-125 {
        fill: url(#linear-gradient-103);
      }
    </style>
    <linearGradient id="linear-gradient" x1="404.8" y1="1409.65" x2="404.8" y2="1364.67" gradientUnits="userSpaceOnUse">
      <stop offset="0" stop-color="#a80000" />
      <stop offset="0.02" stop-color="#ab0000" />
      <stop offset="0.18" stop-color="#ca0000" />
      <stop offset="0.36" stop-color="#e10000" />
      <stop offset="0.54" stop-color="#f20000" />
      <stop offset="0.74" stop-color="#fc0000" />
      <stop offset="1" stop-color="red" />
    </linearGradient>
    <linearGradient id="linear-gradient-2" x1="459.67" y1="1350.12" x2="459.67" y2="1305.12" xlink:href="#linear-gradient" />
    <linearGradient id="linear-gradient-3" x1="514.49" y1="1409.64" x2="514.49" y2="1364.69" xlink:href="#linear-gradient" />
    <linearGradient id="linear-gradient-4" x1="349.77" y1="1350.21" x2="349.77" y2="1305.12" xlink:href="#linear-gradient" />
    <linearGradient id="linear-gradient-5" x1="254.6" y1="1344.04" x2="254.6" y2="1305.13" xlink:href="#linear-gradient" />
    <linearGradient id="linear-gradient-6" x1="333.81" y1="1375.74" x2="333.81" y2="1364.88" xlink:href="#linear-gradient" />
    <linearGradient id="linear-gradient-7" x1="789.17" y1="1350.21" x2="789.17" y2="1305.12" xlink:href="#linear-gradient" />
    <linearGradient id="linear-gradient-8" x1="679.23" y1="1350.24" x2="679.23" y2="1305.12" xlink:href="#linear-gradient" />
    <linearGradient id="linear-gradient-9" x1="569.47" y1="1350.31" x2="569.47" y2="1305.21" xlink:href="#linear-gradient" />
    <linearGradient id="linear-gradient-10" x1="734.15" y1="1409.85" x2="734.15" y2="1364.87" xlink:href="#linear-gradient" />
    <linearGradient id="linear-gradient-11" x1="624.45" y1="1409.83" x2="624.45" y2="1364.87" xlink:href="#linear-gradient" />
    <linearGradient id="linear-gradient-12" x1="1228.58" y1="1350.21" x2="1228.58" y2="1305.12" xlink:href="#linear-gradient" />
    <linearGradient id="linear-gradient-13" x1="1118.64" y1="1350.24" x2="1118.64" y2="1305.12" xlink:href="#linear-gradient" />
    <linearGradient id="linear-gradient-14" x1="1008.88" y1="1350.31" x2="1008.88" y2="1305.21" xlink:href="#linear-gradient" />
    <linearGradient id="linear-gradient-15" x1="1173.55" y1="1409.82" x2="1173.55" y2="1364.87" xlink:href="#linear-gradient" />
    <linearGradient id="linear-gradient-16" x1="1063.86" y1="1409.83" x2="1063.86" y2="1364.87" xlink:href="#linear-gradient" />
    <linearGradient id="linear-gradient-17" x1="1323.74" y1="1344.08" x2="1323.74" y2="1305.11" xlink:href="#linear-gradient" />
    <linearGradient id="linear-gradient-18" x1="844.2" y1="1409.65" x2="844.2" y2="1364.67" xlink:href="#linear-gradient" />
    <linearGradient id="linear-gradient-19" x1="899.08" y1="1350.12" x2="899.08" y2="1305.12" xlink:href="#linear-gradient" />
    <linearGradient id="linear-gradient-20" x1="953.9" y1="1409.64" x2="953.9" y2="1364.69" xlink:href="#linear-gradient" />
    <linearGradient id="linear-gradient-21" x1="193.54" y1="1260.71" x2="193.54" y2="1200.71" gradientUnits="userSpaceOnUse">
      <stop offset="0" stop-color="#787878" />
      <stop offset="0.03" stop-color="#838383" />
      <stop offset="0.11" stop-color="#9c9c9c" />
      <stop offset="0.19" stop-color="#ababab" />
      <stop offset="0.25" stop-color="#b0b0b0" />
      <stop offset="0.28" stop-color="#d2d2d2" />
      <stop offset="0.32" stop-color="#ebebeb" />
      <stop offset="0.35" stop-color="#fafafa" />
      <stop offset="0.38" stop-color="#fff" />
      <stop offset="0.38" stop-color="#f2f2f2" />
      <stop offset="0.4" stop-color="#dadada" />
      <stop offset="0.42" stop-color="#c7c7c7" />
      <stop offset="0.45" stop-color="#bababa" />
      <stop offset="0.48" stop-color="#b2b2b2" />
      <stop offset="0.54" stop-color="#b0b0b0" />
      <stop offset="0.55" stop-color="#a5a5a5" />
      <stop offset="0.59" stop-color="#8c8c8c" />
      <stop offset="0.63" stop-color="#7d7d7d" />
      <stop offset="0.65" stop-color="#787878" />
      <stop offset="0.68" stop-color="#838383" />
      <stop offset="0.76" stop-color="#9c9c9c" />
      <stop offset="0.82" stop-color="#ababab" />
      <stop offset="0.88" stop-color="#b0b0b0" />
      <stop offset="0.88" stop-color="#b0b0b0" />
      <stop offset="0.91" stop-color="#d2d2d2" />
      <stop offset="0.95" stop-color="#ebebeb" />
      <stop offset="0.98" stop-color="#fafafa" />
      <stop offset="1" stop-color="#fff" />
    </linearGradient>
    <linearGradient id="linear-gradient-22" x1="241.12" y1="1260.71" x2="241.12" y2="1200.71" xlink:href="#linear-gradient-21" />
    <linearGradient id="linear-gradient-23" x1="286.01" y1="1260.71" x2="286.01" y2="1200.71" xlink:href="#linear-gradient-21" />
    <linearGradient id="linear-gradient-24" x1="337.2" y1="1262.4" x2="337.2" y2="1199.87" xlink:href="#linear-gradient-21" />
    <linearGradient id="linear-gradient-25" x1="386.34" y1="1260.71" x2="386.34" y2="1200.71" xlink:href="#linear-gradient-21" />
    <linearGradient id="linear-gradient-26" x1="436.69" y1="1260.71" x2="436.69" y2="1200.71" xlink:href="#linear-gradient-21" />
    <linearGradient id="linear-gradient-27" x1="490.57" y1="1260.71" x2="490.57" y2="1200.71" xlink:href="#linear-gradient-21" />
    <linearGradient id="linear-gradient-28" x1="527.67" y1="1260.71" x2="527.67" y2="1200.71" xlink:href="#linear-gradient-21" />
    <linearGradient id="linear-gradient-29" x1="565.46" y1="1260.71" x2="565.46" y2="1200.71" xlink:href="#linear-gradient-21" />
    <linearGradient id="linear-gradient-30" x1="622.18" y1="1262.4" x2="622.18" y2="1199.79" xlink:href="#linear-gradient-21" />
    <linearGradient id="linear-gradient-31" x1="700.02" y1="1260.71" x2="700.02" y2="1200.71" xlink:href="#linear-gradient-21" />
    <linearGradient id="linear-gradient-32" x1="753.26" y1="1260.71" x2="753.26" y2="1200.71" xlink:href="#linear-gradient-21" />
    <linearGradient id="linear-gradient-33" x1="810.03" y1="1260.71" x2="810.03" y2="1200.71" xlink:href="#linear-gradient-21" />
    <linearGradient id="linear-gradient-34" x1="889.91" y1="1260.71" x2="889.91" y2="1200.71" xlink:href="#linear-gradient-21" />
    <linearGradient id="linear-gradient-35" x1="947.5" y1="1260.71" x2="947.5" y2="1200.71" xlink:href="#linear-gradient-21" />
    <linearGradient id="linear-gradient-36" x1="998.7" y1="1262.4" x2="998.7" y2="1199.87" xlink:href="#linear-gradient-21" />
    <linearGradient id="linear-gradient-37" x1="1054.21" y1="1262.4" x2="1054.21" y2="1199.87" xlink:href="#linear-gradient-21" />
    <linearGradient id="linear-gradient-38" x1="1111.74" y1="1260.71" x2="1111.74" y2="1200.71" xlink:href="#linear-gradient-21" />
    <linearGradient id="linear-gradient-39" x1="1169.12" y1="1260.71" x2="1169.12" y2="1200.71" xlink:href="#linear-gradient-21" />
    <linearGradient id="linear-gradient-40" x1="1220.8" y1="1260.71" x2="1220.8" y2="1200.71" xlink:href="#linear-gradient-21" />
    <linearGradient id="linear-gradient-41" x1="1291.06" y1="1260.71" x2="1291.06" y2="1200.71" xlink:href="#linear-gradient-21" />
    <linearGradient id="linear-gradient-42" x1="1333.77" y1="1260.71" x2="1333.77" y2="1200.71" xlink:href="#linear-gradient-21" />
    <linearGradient id="linear-gradient-43" x1="1381.07" y1="1262.4" x2="1381.07" y2="1199.87" xlink:href="#linear-gradient-21" />
    <linearGradient id="linear-gradient-44" x1="193.54" y1="1258.71" x2="193.54" y2="1202.71" gradientUnits="userSpaceOnUse">
      <stop offset="0" stop-color="#cdcdcd" />
      <stop offset="0.04" stop-color="#c7c7c7" />
      <stop offset="0.1" stop-color="#b7b7b7" />
      <stop offset="0.16" stop-color="#9c9c9c" />
      <stop offset="0.23" stop-color="#767676" />
      <stop offset="0.31" stop-color="#474747" />
      <stop offset="0.35" stop-color="#262626" />
      <stop offset="0.35" stop-color="#2f2f2f" />
      <stop offset="0.36" stop-color="#828282" />
      <stop offset="0.36" stop-color="#a2a2a2" />
      <stop offset="0.43" stop-color="#b6b6b6" />
      <stop offset="0.57" stop-color="#dedede" />
      <stop offset="0.69" stop-color="#f6f6f6" />
      <stop offset="0.76" stop-color="#fff" />
      <stop offset="0.86" stop-color="#f6f6f6" />
      <stop offset="1" stop-color="#e1e1e1" />
    </linearGradient>
    <linearGradient id="linear-gradient-45" x1="241.12" y1="1258.71" x2="241.12" y2="1202.71" xlink:href="#linear-gradient-44" />
    <linearGradient id="linear-gradient-46" x1="286.02" y1="1258.71" x2="286.02" y2="1202.71" xlink:href="#linear-gradient-44" />
    <linearGradient id="linear-gradient-47" x1="337.22" y1="1260.4" x2="337.22" y2="1201.87" xlink:href="#linear-gradient-44" />
    <linearGradient id="linear-gradient-48" x1="386.34" y1="1258.71" x2="386.34" y2="1202.71" xlink:href="#linear-gradient-44" />
    <linearGradient id="linear-gradient-49" x1="436.69" y1="1258.71" x2="436.69" y2="1202.71" xlink:href="#linear-gradient-44" />
    <linearGradient id="linear-gradient-50" x1="490.57" y1="1258.71" x2="490.57" y2="1202.71" xlink:href="#linear-gradient-44" />
    <linearGradient id="linear-gradient-51" x1="527.67" y1="1258.71" x2="527.67" y2="1202.71" xlink:href="#linear-gradient-44" />
    <linearGradient id="linear-gradient-52" x1="565.46" y1="1258.71" x2="565.46" y2="1202.71" xlink:href="#linear-gradient-44" />
    <linearGradient id="linear-gradient-53" x1="622.18" y1="1260.4" x2="622.18" y2="1201.79" xlink:href="#linear-gradient-44" />
    <linearGradient id="linear-gradient-54" x1="700.04" y1="1258.71" x2="700.04" y2="1202.71" xlink:href="#linear-gradient-44" />
    <linearGradient id="linear-gradient-55" x1="753.26" y1="1258.71" x2="753.26" y2="1202.71" xlink:href="#linear-gradient-44" />
    <linearGradient id="linear-gradient-56" x1="810.03" y1="1258.71" x2="810.03" y2="1202.71" xlink:href="#linear-gradient-44" />
    <linearGradient id="linear-gradient-57" x1="889.91" y1="1258.71" x2="889.91" y2="1202.71" xlink:href="#linear-gradient-44" />
    <linearGradient id="linear-gradient-58" x1="947.52" y1="1258.71" x2="947.52" y2="1202.71" xlink:href="#linear-gradient-44" />
    <linearGradient id="linear-gradient-59" x1="998.71" y1="1260.4" x2="998.71" y2="1201.87" xlink:href="#linear-gradient-44" />
    <linearGradient id="linear-gradient-60" x1="1054.21" y1="1260.4" x2="1054.21" y2="1201.87" xlink:href="#linear-gradient-44" />
    <linearGradient id="linear-gradient-61" x1="1111.74" y1="1258.71" x2="1111.74" y2="1202.71" xlink:href="#linear-gradient-44" />
    <linearGradient id="linear-gradient-62" x1="1169.12" y1="1258.71" x2="1169.12" y2="1202.71" xlink:href="#linear-gradient-44" />
    <linearGradient id="linear-gradient-63" x1="1220.81" y1="1258.71" x2="1220.81" y2="1202.71" xlink:href="#linear-gradient-44" />
    <linearGradient id="linear-gradient-64" x1="1291.06" y1="1258.71" x2="1291.06" y2="1202.71" xlink:href="#linear-gradient-44" />
    <linearGradient id="linear-gradient-65" x1="1333.77" y1="1258.71" x2="1333.77" y2="1202.71" xlink:href="#linear-gradient-44" />
    <linearGradient id="linear-gradient-66" x1="1380.81" y1="1260.4" x2="1380.81" y2="1201.87" xlink:href="#linear-gradient-44" />
    <linearGradient id="linear-gradient-67" x1="564.93" y1="1472.86" x2="564.93" y2="1429.53" xlink:href="#linear-gradient-21" />
    <linearGradient id="linear-gradient-68" x1="612.02" y1="1471.68" x2="612.02" y2="1430.14" xlink:href="#linear-gradient-21" />
    <linearGradient id="linear-gradient-69" x1="660.59" y1="1471.68" x2="660.59" y2="1430.14" xlink:href="#linear-gradient-21" />
    <linearGradient id="linear-gradient-70" x1="720.55" y1="1472.81" x2="720.55" y2="1429.53" xlink:href="#linear-gradient-21" />
    <linearGradient id="linear-gradient-71" x1="779.57" y1="1471.68" x2="779.57" y2="1430.14" xlink:href="#linear-gradient-21" />
    <linearGradient id="linear-gradient-72" x1="869.43" y1="1471.68" x2="869.43" y2="1430.35" xlink:href="#linear-gradient-21" />
    <linearGradient id="linear-gradient-73" x1="920.82" y1="1472.86" x2="920.82" y2="1430.35" xlink:href="#linear-gradient-21" />
    <linearGradient id="linear-gradient-74" x1="969.52" y1="1471.68" x2="969.52" y2="1431.18" xlink:href="#linear-gradient-21" />
    <linearGradient id="linear-gradient-75" x1="1020.8" y1="1471.68" x2="1020.8" y2="1431.18" xlink:href="#linear-gradient-21" />
    <linearGradient id="linear-gradient-76" x1="565.04" y1="1470.86" x2="565.04" y2="1431.53" xlink:href="#linear-gradient-44" />
    <linearGradient id="linear-gradient-77" x1="612.02" y1="1469.68" x2="612.02" y2="1432.15" xlink:href="#linear-gradient-44" />
    <linearGradient id="linear-gradient-78" x1="660.59" y1="1469.68" x2="660.59" y2="1432.15" xlink:href="#linear-gradient-44" />
    <linearGradient id="linear-gradient-79" x1="720.44" y1="1470.81" x2="720.44" y2="1431.53" xlink:href="#linear-gradient-44" />
    <linearGradient id="linear-gradient-80" x1="779.57" y1="1469.68" x2="779.57" y2="1432.15" xlink:href="#linear-gradient-44" />
    <linearGradient id="linear-gradient-81" x1="869.49" y1="1469.68" x2="869.49" y2="1432.35" xlink:href="#linear-gradient-44" />
    <linearGradient id="linear-gradient-82" x1="920.82" y1="1470.86" x2="920.82" y2="1432.35" xlink:href="#linear-gradient-44" />
    <linearGradient id="linear-gradient-83" x1="969.52" y1="1469.68" x2="969.52" y2="1433.18" xlink:href="#linear-gradient-44" />
    <linearGradient id="linear-gradient-84" x1="1020.8" y1="1469.68" x2="1020.8" y2="1433.18" xlink:href="#linear-gradient-44" />
    <linearGradient id="linear-gradient-85" x1="203.05" y1="1150.86" x2="203.05" y2="756.5" xlink:href="#linear-gradient-21" />
    <linearGradient id="linear-gradient-86" x1="203.05" y1="1143.86" x2="203.05" y2="763.5" xlink:href="#linear-gradient-44" />
    <linearGradient id="linear-gradient-87" x1="551.97" y1="1150.86" x2="551.97" y2="756.5" xlink:href="#linear-gradient-21" />
    <linearGradient id="linear-gradient-88" x1="551.97" y1="1143.86" x2="551.97" y2="763.5" xlink:href="#linear-gradient-44" />
    <linearGradient id="linear-gradient-89" x1="779.43" y1="1150.86" x2="779.43" y2="756.5" xlink:href="#linear-gradient-21" />
    <linearGradient id="linear-gradient-90" x1="779.43" y1="1143.86" x2="779.43" y2="763.5" xlink:href="#linear-gradient-44" />
    <linearGradient id="linear-gradient-91" x1="1020.16" y1="1150.86" x2="1020.16" y2="756.5" xlink:href="#linear-gradient-21" />
    <linearGradient id="linear-gradient-92" x1="1020.16" y1="1143.86" x2="1020.16" y2="763.5" xlink:href="#linear-gradient-44" />
    <linearGradient id="linear-gradient-93" x1="1375.3" y1="1150.86" x2="1375.3" y2="756.5" xlink:href="#linear-gradient-21" />
    <linearGradient id="linear-gradient-94" x1="1375.3" y1="1143.86" x2="1375.3" y2="763.5" xlink:href="#linear-gradient-44" />
    <linearGradient id="linear-gradient-95" x1="950.83" y1="236.94" x2="950.98" y2="236.94" gradientUnits="userSpaceOnUse">
      <stop offset="0" stop-color="#fba919" />
      <stop offset="1" stop-color="#fdd800" />
    </linearGradient>
    <linearGradient id="linear-gradient-96" x1="5851.42" y1="560.61" x2="5851.42" y2="559.72" gradientTransform="matrix(-1, 0, 0, 1, 6132.45, 0)" gradientUnits="userSpaceOnUse">
      <stop offset="0" stop-color="#a80000" />
      <stop offset="0.08" stop-color="#c20000" />
      <stop offset="0.16" stop-color="#d80000" />
      <stop offset="0.27" stop-color="#ea0000" />
      <stop offset="0.39" stop-color="#f60000" />
      <stop offset="0.57" stop-color="#fd0000" />
      <stop offset="1" stop-color="red" />
    </linearGradient>
    <linearGradient id="linear-gradient-97" x1="250.6" y1="686.26" x2="250.6" y2="353.45" gradientTransform="matrix(1, 0, 0, 1, 0, 0)" xlink:href="#linear-gradient-96" />
    <linearGradient id="linear-gradient-98" x1="460.64" y1="402.24" x2="460.64" y2="282.26" gradientUnits="userSpaceOnUse">
      <stop offset="0" stop-color="#29abe2" />
      <stop offset="0.24" stop-color="#6aecf8" />
      <stop offset="0.76" stop-color="#7dffff" />
    </linearGradient>
    <linearGradient id="linear-gradient-99" x1="767.23" y1="251.94" x2="767.23" y2="145.6" xlink:href="#linear-gradient-98" />
    <linearGradient id="linear-gradient-100" x1="170.38" y1="736.5" x2="170.38" y2="502.63" xlink:href="#linear-gradient-98" />
    <linearGradient id="linear-gradient-101" x1="789.17" y1="1667.94" x2="789.17" y2="1170.86" xlink:href="#linear-gradient-98" />
    <linearGradient id="linear-gradient-102" x1="1232.82" y1="698.96" x2="1232.82" y2="290.9" xlink:href="#linear-gradient-98" />
    <linearGradient id="New_Gradient_Swatch_9" x1="1162.25" y1="684.18" x2="1162.25" y2="522.21" gradientUnits="userSpaceOnUse">
      <stop offset="0.01" stop-color="#b27b00" />
      <stop offset="0.25" stop-color="#ffff83" />
      <stop offset="0.32" stop-color="#f2ee77" />
      <stop offset="0.44" stop-color="#d0c157" />
      <stop offset="0.6" stop-color="#9f8029" />
      <stop offset="0.71" stop-color="#e4db68" />
      <stop offset="0.76" stop-color="#ffff81" />
      <stop offset="0.8" stop-color="#e1d65f" />
      <stop offset="0.87" stop-color="#a6861f" />
      <stop offset="1" stop-color="#f1f146" />
    </linearGradient>
    <linearGradient id="New_Gradient_Swatch_9-2" x1="868.25" y1="519.33" x2="868.25" y2="341.59" xlink:href="#New_Gradient_Swatch_9" />
    <linearGradient id="New_Gradient_Swatch_9-3" x1="705.04" y1="683.8" x2="705.04" y2="478.57" xlink:href="#New_Gradient_Swatch_9" />
    <linearGradient id="New_Gradient_Swatch_9-4" x1="178.44" y1="701.97" x2="1511.2" y2="701.97" xlink:href="#New_Gradient_Swatch_9" />
    <linearGradient id="New_Gradient_Swatch_9-5" x1="405.34" y1="602.13" x2="561.58" y2="602.13" xlink:href="#New_Gradient_Swatch_9" />
    <linearGradient id="New_Gradient_Swatch_9-6" x1="947.4" y1="455.78" x2="1084.16" y2="455.78" xlink:href="#New_Gradient_Swatch_9" />
    <linearGradient id="New_Gradient_Swatch_9-7" x1="1169.66" y1="618.83" x2="1293.56" y2="618.83" xlink:href="#New_Gradient_Swatch_9" />
    <linearGradient id="New_Gradient_Swatch_9-8" x1="918.15" y1="459.21" x2="944.39" y2="459.21" xlink:href="#New_Gradient_Swatch_9" />
    <linearGradient id="New_Gradient_Swatch_9-9" x1="950.42" y1="459.21" x2="976.66" y2="459.21" xlink:href="#New_Gradient_Swatch_9" />
    <linearGradient id="New_Gradient_Swatch_9-10" x1="918.15" y1="491.49" x2="944.39" y2="491.49" xlink:href="#New_Gradient_Swatch_9" />
    <linearGradient id="New_Gradient_Swatch_9-11" x1="950.42" y1="491.49" x2="976.66" y2="491.49" xlink:href="#New_Gradient_Swatch_9" />
    <linearGradient id="New_Gradient_Swatch_9-12" x1="534.42" y1="602.7" x2="558.59" y2="602.7" xlink:href="#New_Gradient_Swatch_9" />
    <linearGradient id="New_Gradient_Swatch_9-13" x1="564.14" y1="602.7" x2="588.31" y2="602.7" xlink:href="#New_Gradient_Swatch_9" />
    <linearGradient id="New_Gradient_Swatch_9-14" x1="534.42" y1="634.97" x2="558.59" y2="634.97" xlink:href="#New_Gradient_Swatch_9" />
    <linearGradient id="New_Gradient_Swatch_9-15" x1="564.14" y1="634.97" x2="588.31" y2="634.97" xlink:href="#New_Gradient_Swatch_9" />
    <linearGradient id="New_Gradient_Swatch_9-16" x1="1172.43" y1="612.8" x2="1196.6" y2="612.8" xlink:href="#New_Gradient_Swatch_9" />
    <linearGradient id="New_Gradient_Swatch_9-17" x1="1142.71" y1="612.8" x2="1166.88" y2="612.8" xlink:href="#New_Gradient_Swatch_9" />
    <linearGradient id="New_Gradient_Swatch_9-18" x1="1172.43" y1="645.07" x2="1196.6" y2="645.07" xlink:href="#New_Gradient_Swatch_9" />
    <linearGradient id="New_Gradient_Swatch_9-19" x1="1142.71" y1="645.07" x2="1166.88" y2="645.07" xlink:href="#New_Gradient_Swatch_9" />
    <linearGradient id="New_Gradient_Swatch_9-20" x1="296.96" y1="534.86" x2="1629.72" y2="534.86" gradientTransform="translate(-118.52 4.31)" xlink:href="#New_Gradient_Swatch_9" />
    <linearGradient id="linear-gradient-103" x1="332.99" y1="680.86" x2="332.87" y2="680.86" xlink:href="#linear-gradient-98" />
  </defs>
  <g id="Layer_2" data-name="Layer 2">
    <g id="Layer_1-2" data-name="Layer 1">
      <path class="cls-1" d="M453.22,1402.28c.11,5.29-1.9,7.45-7.31,7.37-13.8-.22-27.62-.08-41.43-.08v0h-2.85l-45.06-26q0-5.71-.18-11.43c-.13-5.26,1.71-7.46,7.18-7.43q41.08.25,82.17,0c5.25,0,7.58,1.75,7.46,7.2Q452.87,1387.08,453.22,1402.28Z" />
      <path class="cls-2" d="M459.55,1350c-13.35,0-26.7-.25-40,.12-6.47.19-8.5-2.29-8.26-8.49.37-9.65.25-19.32.06-29-.1-5.09,1.45-7.56,7.07-7.52q41.4.27,82.82,0c5.16,0,6.93,2.21,6.88,7.06q-.19,15.52,0,31c.07,5.09-2.23,6.87-7.15,6.81C487.16,1349.87,473.35,1350,459.55,1350Z" />
      <path class="cls-3" d="M514.81,1409.56c-13.81,0-27.61-.14-41.41.08-5.4.09-7.42-2.08-7.31-7.36q.33-15.16.05-30.36c-.11-5.39,2.15-7.25,7.44-7.22q41.06.22,82.12,0c4.83,0,7.28,1.52,7.19,6.72-.18,10.58-.16,21.17,0,31.75.08,4.81-2.08,6.49-6.68,6.44C542.41,1409.47,528.61,1409.56,514.81,1409.56Z" />
      <path class="cls-4" d="M350.06,1305.2c13.36,0,26.71.16,40.06-.08,5.89-.11,8.29,1.93,8.06,8.06-.4,10.11-.22,20.25-.08,30.38.06,4.67-1.83,6.66-6.56,6.65q-41.79-.14-83.58,0c-4.69,0-6.66-1.9-6.59-6.6.14-10.36.23-20.73,0-31.08-.14-5.37,1.93-7.46,7.27-7.39C322.43,1305.32,336.25,1305.2,350.06,1305.2Z" />
      <path class="cls-5" d="M288.21,1312.78c-.28,10.12-.2,20.26,0,30.38,0,.3,0,.6,0,.88L221,1305.25c6.26,0,12.52,0,18.79,0,13.58,0,27.16.17,40.73-.09C286.19,1305,288.37,1307.09,288.21,1312.78Z" />
      <path class="cls-6" d="M343.16,1372l-.09,3.7L324.46,1365c3.78,0,7.55,0,11.33-.11C341.08,1364.79,343.31,1366.55,343.16,1372Z" />
      <path class="cls-7" d="M789.47,1305.2c13.35,0,26.71.16,40.06-.08,5.89-.11,8.29,1.93,8.05,8.06-.39,10.11-.21,20.25-.07,30.38.06,4.67-1.84,6.66-6.56,6.65q-41.79-.14-83.58,0c-4.7,0-6.66-1.9-6.59-6.6.14-10.36.23-20.73,0-31.08-.13-5.37,1.94-7.46,7.28-7.39C761.84,1305.32,775.66,1305.2,789.47,1305.2Z" />
      <path class="cls-8" d="M679.18,1305.22c13.58,0,27.17.17,40.74-.09,5.67-.11,7.86,2,7.7,7.66-.28,10.12-.2,20.25,0,30.37.09,4.91-1.71,7.11-6.84,7.08q-41.41-.18-82.85,0c-5,0-7.1-1.91-7-6.91.15-10.36.18-20.72,0-31.07-.11-5.52,2.46-7.18,7.61-7.1C652,1305.35,665.61,1305.22,679.18,1305.22Z" />
      <path class="cls-9" d="M569,1350.17c-13.12,0-26.26-.3-39.37.13-6.82.22-8.9-2.32-8.61-8.88.43-9.88.23-19.8.06-29.69-.08-4.77,2-6.54,6.61-6.52q41.79.15,83.58,0c4.67,0,6.64,2,6.58,6.67-.15,10.36-.2,20.72,0,31.08.11,5.39-2.13,7.34-7.43,7.26C596.67,1350,582.86,1350.18,569,1350.17Z" />
      <path class="cls-10" d="M734.46,1365c13.58,0,27.16.16,40.74-.08,5.28-.09,7.52,1.67,7.36,7.16-.28,10.12-.25,20.26,0,30.38.13,5.26-1.71,7.46-7.18,7.43q-41.08-.25-82.17,0c-5.25,0-7.58-1.75-7.46-7.2q.33-15.19,0-30.38c-.11-5.29,1.9-7.46,7.31-7.37,13.8.22,27.62.07,41.43.07Z" />
      <path class="cls-11" d="M624.13,1365c13.81,0,27.61.14,41.41-.08,5.4-.09,7.42,2.08,7.31,7.36q-.33,15.16-.05,30.36c.11,5.39-2.15,7.25-7.44,7.22q-41.05-.22-82.12,0c-4.83,0-7.28-1.52-7.19-6.73.18-10.57.16-21.16,0-31.74-.08-4.81,2.08-6.49,6.68-6.45C596.53,1365.05,610.33,1365,624.13,1365Z" />
      <path class="cls-12" d="M1228.88,1305.2c13.35,0,26.71.16,40.06-.08,5.89-.11,8.29,1.93,8,8.06-.39,10.11-.21,20.25-.07,30.38.06,4.67-1.84,6.66-6.56,6.65q-41.79-.14-83.58,0c-4.7,0-6.66-1.9-6.6-6.6.15-10.36.24-20.73,0-31.08-.13-5.37,1.94-7.46,7.28-7.39C1201.25,1305.32,1215.06,1305.2,1228.88,1305.2Z" />
      <path class="cls-13" d="M1118.59,1305.22c13.58,0,27.16.17,40.74-.09,5.67-.11,7.86,2,7.7,7.66-.28,10.12-.2,20.25,0,30.37.09,4.91-1.71,7.11-6.84,7.08q-41.43-.18-82.85,0c-5,0-7.1-1.91-7-6.91.14-10.36.18-20.72,0-31.07-.11-5.52,2.45-7.18,7.61-7.1C1091.43,1305.35,1105,1305.22,1118.59,1305.22Z" />
      <path class="cls-14" d="M1008.45,1350.17c-13.12,0-26.26-.3-39.37.13-6.82.22-8.91-2.32-8.62-8.88.44-9.88.24-19.8.07-29.69-.08-4.77,2-6.54,6.61-6.52q41.79.15,83.58,0c4.67,0,6.64,2,6.58,6.67-.15,10.36-.2,20.72,0,31.08.12,5.39-2.13,7.34-7.42,7.26C1036.08,1350,1022.26,1350.18,1008.45,1350.17Z" />
      <path class="cls-15" d="M1222,1372q-.17,5.74-.19,11.49l-45.35,26.18h-.13q-21.85,0-43.7.11c-5.24,0-7.57-1.76-7.45-7.21q.33-15.18,0-30.38c-.11-5.29,1.9-7.45,7.3-7.36,13.81.22,27.62.07,41.43.07v0c13.58,0,27.17.16,40.74-.08C1219.89,1364.79,1222.12,1366.55,1222,1372Z" />
      <path class="cls-16" d="M1063.54,1365c13.8,0,27.61.14,41.41-.08,5.4-.09,7.42,2.08,7.3,7.36q-.32,15.16,0,30.36c.1,5.39-2.15,7.25-7.44,7.22q-41.07-.22-82.12,0c-4.84,0-7.28-1.52-7.19-6.73.18-10.57.16-21.16,0-31.74-.08-4.81,2.07-6.49,6.68-6.45C1035.94,1365.05,1049.74,1365,1063.54,1365Z" />
      <path class="cls-17" d="M1357.43,1305.21l-67.32,38.87a21.8,21.8,0,0,1,0-2.46c.38-9.65.26-19.32.07-29-.1-5.1,1.45-7.56,7.06-7.53Q1327.32,1305.31,1357.43,1305.21Z" />
      <path class="cls-18" d="M843.89,1409.55c-13.58,0-27.16-.15-40.74.08-5.29.1-7.52-1.66-7.37-7.15.28-10.12.25-20.26,0-30.38-.13-5.26,1.71-7.46,7.18-7.43q41.09.25,82.17,0c5.25,0,7.58,1.75,7.46,7.2-.23,10.12-.2,20.26,0,30.38.12,5.29-1.89,7.45-7.3,7.37-13.81-.22-27.62-.07-41.43-.07Z" />
      <path class="cls-19" d="M899,1350c-13.34,0-26.69-.25-40,.12-6.47.19-8.5-2.29-8.27-8.49.38-9.65.26-19.32.07-29-.1-5.09,1.45-7.56,7.06-7.52q41.41.27,82.82,0c5.17,0,6.94,2.21,6.88,7.06q-.18,15.52,0,31c.07,5.09-2.23,6.87-7.16,6.81C926.56,1349.87,912.76,1350,899,1350Z" />
      <path class="cls-20" d="M954.21,1409.56c-13.8,0-27.6-.14-41.4.08-5.4.09-7.42-2.08-7.31-7.36q.33-15.16,0-30.36c-.11-5.39,2.15-7.25,7.44-7.22q41.06.22,82.12,0c4.83,0,7.27,1.52,7.19,6.72q-.27,15.87,0,31.75c.08,4.81-2.08,6.49-6.68,6.44C981.82,1409.47,968,1409.56,954.21,1409.56Z" />
      <path class="cls-21" d="M786.61,1593c-.17,9.26-3.54,13.22-14.49,16.47-5.29,1.57-10.39,3.6-15.84,4.82l-40.82-23.57a23.66,23.66,0,0,1,8.9-8c5.83-3,10.71-7.29,17.88-8.51a34.37,34.37,0,0,1,13.14,0c5.45,1.17,10.91,2.28,16.37,3.38C782.91,1579.92,786.78,1583.9,786.61,1593Z" />
      <path class="cls-21" d="M786.61,1558.74c0,2.61.07,5.22,0,7.82-.2,5.93-4.66,8.68-11.81,7.13-7.65-1.67-15.24-3.51-22.84-5.35-12-2.88-24.17-5.11-36.32-7.5-7.1-1.39-9.4-5.32-6-10.49q3.95-6,8.13-12c3.41-4.86,9.51-7.38,16.32-6.27q20.55,3.33,41,7.13c7.46,1.38,11.55,5.9,11.62,12,0,2.5,0,5,0,7.49Z" />
      <path class="cls-21" d="M786.62,1631.82l-22.59-13c3.93-1.51,8-2.77,12.13-4,5.88-1.76,10.3.65,10.39,5.7C786.62,1624.27,786.63,1628,786.62,1631.82Z" />
      <path class="cls-21" d="M645.39,1488.29c11.3,0,22.59,0,33.89,0,8.66,0,11.71,3.2,9.67,10-1.58,5.27-3.22,10.52-4.85,15.78-2.16,7-6.49,8.49-14.05,4.82-1.5-.72-3-1.48-4.47-2.21a26.5,26.5,0,0,0-21.91-1.07l-6.23,2.3c-9,3.35-12.08,2.29-15.4-5.14-1.68-3.77-4.48-6.41-10-7-6-.69-11.29-7.7-10.07-12.53.78-3.13,3.44-4.84,8.3-4.88,11.7-.08,23.4,0,35.09,0Z" />
      <path class="cls-21" d="M619.72,1533.79a4.75,4.75,0,0,1-.28,1.51l-44.5-25.69a15.68,15.68,0,0,1,8.62-1.58c7.07.52,14.09,1.54,21.11,2.44a14.23,14.23,0,0,1,7.36,3.17C618.76,1519.28,619.91,1526.5,619.72,1533.79Z" />
      <path class="cls-21" d="M689.16,1524.1c.87-3,1.61-5.72,2.43-8.41,1.86-6.1,3.71-12.2,5.66-18.28,1.82-5.65,7.09-9,14.31-9.1q12.29-.13,24.58,0c7.2.06,11.11,3.48,10.72,9.36q-.74,11-1.74,22.06c-.61,6.81-5.58,8.74-12.48,4.91-1.31-.73-2.86-1.51-3.55-2.58-2.35-3.64-6.26-3.9-10.36-3.21-9.2,1.54-18.33,3.33-27.49,5C690.76,1524,690.26,1524,689.16,1524.1Z" />
      <path class="cls-21" d="M688,1553.92c-6.4-1.21-12.7-2.72-19-4.12-8.09-1.79-16.31-2.18-24.21.07h0c-10.55,3-15.85-.22-15.83-8.94a1.34,1.34,0,0,0,0-.2c0-.37-.07-.74-.1-1.1-.39-6.27,3.33-10.82,10.24-13.85,10.16-4.46,20.13-4.72,30.3-.24a44.67,44.67,0,0,0,5.89,2.09c12.45,3.53,17.5,11.52,19.59,21.22C695.55,1552.48,692.52,1554.78,688,1553.92Z" />
      <path class="cls-21" d="M723.28,1573.59c-3.95,2.23-8.3,4-11.58,7a25.2,25.2,0,0,0-4.67,5.29l-32.35-18.68c1-.59,2-1.19,2.92-1.79,4.57-2.81,9.84-3.84,15.92-4.05,5.48.36,11.08,2,16.83,3,3.8.69,7.57,1.46,11.33,2.27,2.07.44,4.42.84,4.9,2.88S725,1572.59,723.28,1573.59Z" />
      <path class="cls-21" d="M786.6,1511.44c0,4.33,0,8.67,0,13-.09,5.74-4.75,9-11.8,8.27-3.33-.35-6.65-.77-10-1.22-6.59-.9-10.82-4.93-10.39-10.26.64-7.89,1.41-15.78,2.39-23.65.73-5.92,5.22-9.11,12.54-9.29a29,29,0,0,1,8.77.61c5.47,1.56,8.34,4.57,8.44,9.2C786.68,1502.55,786.6,1507,786.6,1511.44Z" />
      <path class="cls-21" d="M587.4,1502.62c-2.26-.17-4.47-.68-6.72-1-5.65-.75-10.69-.15-15.07,2.58l-21.43-12.37a17.94,17.94,0,0,1,9.67-3.38c9.9-.37,19.84-.3,29.75,0,5.2.15,9,2.68,10.91,6.67C596.59,1499.55,593.24,1503.06,587.4,1502.62Z" />
      <path class="cls-21" d="M668.05,1560.72c-.64.52-1.3,1-2,1.5l-14.2-8.2c1.19-.16,2.4-.3,3.61-.41s2.41-.11,3.61-.16a32.66,32.66,0,0,1,6.78.52C670.62,1555.14,671.59,1557.83,668.05,1560.72Z" />
      <path class="cls-21" d="M697.71,1537c.15-6.17,8.42-11.67,15.19-10.62,2.32.36,3,1.63,1.93,3.12a59.23,59.23,0,0,1-10.23,11.63,3.63,3.63,0,0,1-6-1.19A14.29,14.29,0,0,1,697.71,1537Z" />
      <path class="cls-21" d="M809,1621.88l-17.18,9.92q0-1,0-2.1c.14-6.1,4.09-8.92,11.62-8.3C805.27,1621.55,807.12,1621.71,809,1621.88Z" />
      <path class="cls-21" d="M791.86,1532.28c0-4.56-.14-9.11,0-13.66.19-5,2.26-6,8-4.34s10.86.4,15.67-2.15c5.64-3,11.24-6,18.49-5.54a27,27,0,0,1,7.8,1.41c5.86,2.15,11.75,4.26,17.61,6.42,7.2,2.65,9.51,7.17,6.62,13-1.94,3.92-3.93,7.83-6,11.71-2.93,5.46-8.58,8.29-16,7.93-4.83-.24-9.64-.63-14.45-1-7.75-.62-14.72.53-20,5.57a3.77,3.77,0,0,1-.59.44c-3.36,2.18-7.14,4-11.43,2.6s-5.41-4.76-5.61-8.09c-.28-4.76-.07-9.53-.07-14.3Z" />
      <path class="cls-21" d="M999.07,1498.3c-1.59,5.26-3.22,10.52-4.85,15.78-.11.36-.23.71-.35,1h0c-1.76,4.75-4.73,6.51-9.35,5.4a21.51,21.51,0,0,1-4.35-1.62c-1.5-.72-3-1.48-4.46-2.22a26.6,26.6,0,0,0-21.92-1.07c-2.07.78-4.15,1.54-6.23,2.31-9,3.35-12.08,2.29-15.39-5.14-1.69-3.77-4.49-6.42-10-7-6-.68-11.29-7.69-10.08-12.52.79-3.14,3.44-4.84,8.3-4.88,11.7-.08,23.4,0,35.1,0h0c11.29,0,22.58,0,33.88,0C998.06,1488.33,1001.11,1491.5,999.07,1498.3Z" />
      <path class="cls-21" d="M872.33,1551.76c-6.23.08-7.3-.77-6.77-4.89a14.73,14.73,0,0,1,1.17-4.44c4.37-9.31,8.65-18.66,13.38-27.85,2.38-4.62,7.32-7,13.56-6.55,7.07.53,14.09,1.54,21.11,2.45a14.22,14.22,0,0,1,7.36,3.16c6.74,5.64,7.89,12.87,7.69,20.15-.08,3.26-3.32,5.71-7.34,6.68-15.3,3.67-30.64,7.23-46,10.78A32.27,32.27,0,0,1,872.33,1551.76Z" />
      <path class="cls-21" d="M1040.3,1488.25l-36.71,21.26c1.23-4,2.48-8.07,3.78-12.1,1.81-5.65,7.08-9,14.3-9.11Q1031,1488.21,1040.3,1488.25Z" />
      <path class="cls-21" d="M836.07,1552.89c2.95.21,5.89.57,8.84.59,11.25.1,19.31,4.43,25.17,12,4.1,5.25,3.47,11-2,15.4-6.44,5.19-14.36,8.36-23,10.4-5.91,1.4-10.69-.52-14-4.81-3.11-4.05-6.4-8-9.72-12a18.93,18.93,0,0,1-3.79-6.4c-2.87-9.13,4-15.88,15.63-15.31.93,0,1.87.12,2.81.19Z" />
      <path class="cls-21" d="M977.3,1524.69l-37.4,21.59a13.63,13.63,0,0,1-.92-5.34c0-.44-.07-.87-.11-1.3-.39-6.27,3.33-10.82,10.25-13.85C958.58,1521.64,967.86,1521.13,977.3,1524.69Z" />
      <path class="cls-21" d="M932.91,1550.32l-32.4,18.7h0l-10-1a34.74,34.74,0,0,1-11.25-3.38c-2.06-1-4.45-2-4.15-4.35s3-3.24,5.39-3.81c5-1.19,10.11-2.17,15.18-3.22,9.1-1.88,18.19-3.78,27.31-5.62C928.48,1546.52,931.74,1547.39,932.91,1550.32Z" />
      <path class="cls-21" d="M849.19,1499.82c0-5.21,7.06-11,14.77-11.34,9.9-.37,19.84-.31,29.75,0,5.2.15,9,2.68,10.91,6.67,2.09,4.44-1.27,7.94-7.1,7.51-2.26-.17-4.48-.69-6.73-1-6.75-.89-12.63.14-17.55,4.41-5.39,4.67-18.23,3.43-22.52-1.93A6.46,6.46,0,0,1,849.19,1499.82Z" />
      <path class="cls-21" d="M827.15,1600c-.95,12.94-12.64,18.8-28,14.72a10.22,10.22,0,0,1-6.42-5.14c-3.07-5.55.89-15.49,7.52-18.34,4.89-2.11,10-3.85,15.78-2.7C823.5,1590.05,827.18,1593.88,827.15,1600Z" />
      <path class="cls-21" d="M819.69,1488.25c5.64,0,11.29-.07,16.93,0,5.32.09,8.15,1.85,8.06,4.77-.1,3.35-4.59,6.84-8.93,6.52-6.24-.45-11.6,1.19-16.76,3.74-4,2-7.72,4.34-12.32,5.44-7.34,1.74-10.86.29-13.32-5.5a15.44,15.44,0,0,1-1.32-6c0-5.23,4.22-8.83,10.73-9,5.64-.09,11.29,0,16.93,0Z" />
      <path class="cls-21" d="M792.11,1576.36c0-2.92-.43-5.9.08-8.76,1-5.39,5.41-6.8,10.94-3.72a27.5,27.5,0,0,1,11.16,11.69c1.82,3.47,0,5.91-4.52,6.8a36.37,36.37,0,0,0-12.68,4.73c-2.6,1.65-4.51,1.11-4.89-1.66C791.79,1582.45,792.11,1579.39,792.11,1576.36Z" />
      <path class="cls-22" d="M171.34,1260.71v-60h26.42c5.57,0,10.06,1.76,13.36,5.23a18,18,0,0,1,4.62,12.67c0,5.55-1.75,10.11-5.19,13.55a15.73,15.73,0,0,1-11.63,4.81H182.56v23.74Zm27.27-34.11a5,5,0,0,0,3.61-1.9,8.57,8.57,0,0,0,2.22-6.09,7.59,7.59,0,0,0-2.08-5.33,6.15,6.15,0,0,0-4.67-2.19H182.56v15.51Z" />
      <polygon class="cls-23" points="221.73 1260.71 221.73 1200.71 232.95 1200.71 232.95 1250.34 260.52 1250.34 260.52 1260.71 221.73 1260.71" />
      <path class="cls-24" d="M301,1260.71,295.32,1244H276.69l-6,16.74H258.74l21.81-60H292.2l21.07,60ZM291.79,1234l-5.56-16.6-6.14,16.6Z" />
      <path class="cls-25" d="M337,1262.4c-7.55,0-13.43-1.88-17.48-5.59s-6.22-9.07-6.33-15.81l0-2h10.49l.14,1.84c.31,4,1.57,6.92,3.74,8.66s6,2.71,11,2.71a13,13,0,0,0,8.31-2.48,7.24,7.24,0,0,0,2.9-6c0-1.9-.7-4.62-6.73-6.19l-15.21-4c-10.56-2.8-12.78-9.82-12.78-15.22a17.05,17.05,0,0,1,5.87-13.42c3.82-3.34,8.85-5,14.95-5,19.14,0,23.39,10.42,23.59,19.16l0,2H348.72l-.1-1.9c-.17-3.23-1.33-5.57-3.54-7.16-2.06-1.49-4.95-2.24-8.59-2.24a12.36,12.36,0,0,0-7.74,2.36,6.41,6.41,0,0,0-2.86,5.32c0,1.71.61,4.15,5.88,5.52l17.51,4.61a15.78,15.78,0,0,1,8.53,5.7,16.77,16.77,0,0,1,3.41,10.29,16.57,16.57,0,0,1-6.85,13.76C350,1260.7,344.15,1262.4,337,1262.4Z" />
      <polygon class="cls-26" points="380.8 1260.71 380.8 1211.09 362.37 1211.09 362.37 1200.71 410.31 1200.71 410.31 1211.09 392.02 1211.09 392.02 1260.71 380.8 1260.71" />
      <polygon class="cls-27" points="414.6 1260.71 414.6 1200.71 457.47 1200.71 457.47 1211.09 425.82 1211.09 425.82 1224.76 456.24 1224.76 456.24 1235.13 425.82 1235.13 425.82 1250.34 458.77 1250.34 458.77 1260.71 414.6 1260.71" />
      <path class="cls-28" d="M503,1260.71l-.49-1.3a30.76,30.76,0,0,1-1.48-5.59,42,42,0,0,1-.26-9c-.24-7.19-3.69-8.11-6.68-8.11H477.28v24H466.06v-60h27.66c7,0,12.12,1.69,15.21,5,2.65,2.89,4,7.19,4,12.81,0,4.74-2,8.92-6,12.45a14.58,14.58,0,0,1,3.39,3.46,13.23,13.23,0,0,1,1.52,5.8v.14c0,2.29.25,6.19.61,11.58a4.79,4.79,0,0,0,1.86,3.34l.76.59v4.81Zm-8.91-34.42c5.26,0,7.6-2.67,7.6-8.67a5.78,5.78,0,0,0-2-4.73,8.49,8.49,0,0,0-5.7-1.8H477.28v15.2Z" />
      <rect class="cls-29" x="522.06" y="1200.71" width="11.22" height="60" />
      <polygon class="cls-30" points="578.03 1260.71 552.79 1220.89 552.79 1260.71 541.57 1260.71 541.57 1200.71 553.2 1200.71 578.13 1240.93 578.13 1200.71 589.35 1200.71 589.35 1260.71 578.03 1260.71" />
      <path class="cls-31" d="M622.07,1262.4c-8.26,0-15-3-20.11-8.92-4.85-5.61-7.32-12.93-7.32-21.73,0-9.26,2.47-16.83,7.32-22.5,5.34-6.27,13-9.46,22.64-9.46,8,0,14.32,2.52,18.84,7.49a19.59,19.59,0,0,1,5.51,12.2l.14,2.13H638.58l-.39-1.49a12,12,0,0,0-5.29-7.43,17,17,0,0,0-9.29-2.45,15.72,15.72,0,0,0-12.76,5.67c-3.26,3.86-4.91,9.06-4.91,15.45s1.65,11.55,4.9,15.33,7.39,5.57,12.77,5.57a16.17,16.17,0,0,0,10.91-3.83,13.66,13.66,0,0,0,4.83-11H622.22V1227h27.5v34h-8.17l-1.3-5.32a34.16,34.16,0,0,1-7.6,4.81A27,27,0,0,1,622.07,1262.4Z" />
      <path class="cls-32" d="M715.05,1260.71,709.34,1244H690.7l-6,16.74h-12l21.81-60h11.65l21.07,60ZM705.8,1234l-5.55-16.6L694.1,1234Z" />
      <polygon class="cls-33" points="765.84 1260.71 740.59 1220.89 740.59 1260.71 729.37 1260.71 729.37 1200.71 741 1200.71 765.93 1240.93 765.93 1200.71 777.16 1200.71 777.16 1260.71 765.84 1260.71" />
      <path class="cls-34" d="M785.83,1260.71v-60h24.74a21.4,21.4,0,0,1,15.47,6.73c5.43,5.44,8.19,13.1,8.19,22.77,0,8.93-2.4,16.46-7.12,22.37-4.39,5.4-9.38,8.13-14.85,8.13Zm25.5-10.37c3.58,0,6.33-1.72,8.42-5.25s3.26-8.67,3.26-14.88-1.31-11.24-3.89-14.6a11.57,11.57,0,0,0-9.71-4.52H797.05v39.25Z" />
      <polygon class="cls-35" points="906.88 1260.71 906.88 1225.69 895.03 1260.71 884.79 1260.71 872.94 1225.52 872.94 1260.71 861.57 1260.71 861.57 1200.71 875.21 1200.71 889.92 1244.18 904.63 1200.71 918.26 1200.71 918.26 1260.71 906.88 1260.71" />
      <path class="cls-36" d="M962.54,1260.71,956.82,1244H938.19l-6,16.74H920.24l21.81-60H953.7l21.07,60ZM953.29,1234l-5.56-16.6-6.14,16.6Z" />
      <path class="cls-37" d="M998.52,1262.4c-7.55,0-13.43-1.88-17.48-5.59s-6.22-9.07-6.33-15.81l0-2h10.49l.15,1.84c.31,4,1.57,6.92,3.74,8.66s6,2.71,11,2.71a12.94,12.94,0,0,0,8.31-2.48,7.24,7.24,0,0,0,2.9-6c0-1.9-.7-4.62-6.73-6.19l-15.21-4c-10.56-2.8-12.78-9.82-12.78-15.22a17.05,17.05,0,0,1,5.87-13.42c3.82-3.34,8.85-5,15-5,19.14,0,23.39,10.42,23.58,19.16l0,2h-10.78l-.1-1.9c-.17-3.23-1.33-5.57-3.55-7.16-2.05-1.49-4.94-2.24-8.59-2.24a12.4,12.4,0,0,0-7.74,2.36,6.43,6.43,0,0,0-2.85,5.32c0,1.71.61,4.15,5.88,5.52l17.51,4.61a15.78,15.78,0,0,1,8.53,5.7,16.77,16.77,0,0,1,3.41,10.29,16.57,16.57,0,0,1-6.85,13.76C1011.48,1260.7,1005.65,1262.4,998.52,1262.4Z" />
      <path class="cls-38" d="M1054,1262.4c-8.54,0-15.56-3-20.87-8.75s-7.94-13.33-7.94-22.52c0-8.84,2.43-16.22,7.23-21.94,5.3-6.19,12.59-9.32,21.66-9.32,9.23,0,16.62,3.24,22,9.63,4.8,5.77,7.23,13.21,7.23,22.1,0,9.08-2.7,16.56-8,22.22S1062.71,1262.4,1054,1262.4Zm.46-52.08c-5.87,0-10.28,1.94-13.5,5.94-3,3.71-4.47,8.71-4.47,14.87,0,6.39,1.65,11.55,4.89,15.33s7.42,5.56,12.85,5.56c5.84,0,10.22-2,13.39-6.19,2.89-3.83,4.35-8.85,4.35-14.93s-1.63-11.06-4.84-14.93S1059.81,1210.32,1054.44,1210.32Z" />
      <polygon class="cls-39" points="1124.32 1260.71 1099.07 1220.89 1099.07 1260.71 1087.85 1260.71 1087.85 1200.71 1099.48 1200.71 1124.41 1240.93 1124.41 1200.71 1135.63 1200.71 1135.63 1260.71 1124.32 1260.71" />
      <path class="cls-40" d="M1181.56,1260.71l-.48-1.3a30,30,0,0,1-1.49-5.59,42,42,0,0,1-.26-9c-.24-7.19-3.69-8.11-6.68-8.11h-16.82v24h-11.22v-60h27.66c7,0,12.12,1.69,15.21,5,2.66,2.89,4,7.19,4,12.81,0,4.74-2,8.92-6,12.45a14.58,14.58,0,0,1,3.39,3.46,13.23,13.23,0,0,1,1.52,5.8v.14c0,2.3.26,6.2.61,11.58a4.78,4.78,0,0,0,1.87,3.34l.75.59v4.81Zm-8.91-34.42c5.26,0,7.61-2.67,7.61-8.67a5.78,5.78,0,0,0-2-4.73,8.49,8.49,0,0,0-5.7-1.8h-16.75v15.2Z" />
      <polygon class="cls-41" points="1215.36 1260.71 1215.36 1237.32 1192.3 1200.71 1205.89 1200.71 1220.94 1225.96 1235.69 1200.71 1249.3 1200.71 1226.58 1237.31 1226.58 1260.71 1215.36 1260.71" />
      <polygon class="cls-42" points="1271.66 1260.71 1271.66 1200.71 1282.88 1200.71 1282.88 1250.34 1310.46 1250.34 1310.46 1260.71 1271.66 1260.71" />
      <polygon class="cls-43" points="1314.37 1260.71 1314.37 1200.71 1325.59 1200.71 1325.59 1250.34 1353.16 1250.34 1353.16 1260.71 1314.37 1260.71" />
      <path class="cls-44" d="M1381.35,1262.4c-8,0-14.55-2.94-19.46-8.73s-7.27-13.26-7.27-22.46c0-8.71,2.2-16,6.55-21.72,4.89-6.38,11.7-9.62,20.26-9.62a23.5,23.5,0,0,1,15,5.08c4.21,3.33,7.37,8.19,9.38,14.43l.84,2.62H1395l-.5-1.28c-2.72-7-7.08-10.48-13.34-10.48a12.68,12.68,0,0,0-10.83,5.57c-2.85,3.88-4.3,9.19-4.3,15.79,0,6.12,1.48,11.15,4.39,15a13.07,13.07,0,0,0,11,5.47c7.36,0,12.05-4.67,14.34-14.28l.37-1.54h11.47l-.57,2.45C1403.3,1254.41,1394.69,1262.4,1381.35,1262.4Z" />
      <path class="cls-45" d="M213.74,1218.61q0,7.53-4.61,12.14a13.73,13.73,0,0,1-10.21,4.23H180.56v23.73h-7.22v-56h24.42q7.53,0,11.91,4.61A16,16,0,0,1,213.74,1218.61Zm-7.3,0a9.56,9.56,0,0,0-2.61-6.68,8.1,8.1,0,0,0-6.14-2.84H180.56v19.51h18.05a7,7,0,0,0,5.07-2.53A10.61,10.61,0,0,0,206.44,1218.61Z" />
      <path class="cls-46" d="M258.52,1258.71H223.73v-56H231v49.62h27.57Z" />
      <path class="cls-47" d="M310.45,1258.71h-8L296.75,1242H275.28l-6,16.74h-7.69l20.36-56h8.83ZM294.57,1236l-8.24-24.61L277.22,1236Z" />
      <path class="cls-48" d="M359.22,1243.58a14.58,14.58,0,0,1-6.07,12.17q-6.06,4.65-16.13,4.65-10.59,0-16.13-5.07T315.21,1241h6.6q.54,6.91,4.5,10.06t12.25,3.15a14.82,14.82,0,0,0,9.56-2.92,9.19,9.19,0,0,0,3.65-7.52q0-6-8.22-8.13l-15.21-4q-11.28-3-11.29-13.29a15.08,15.08,0,0,1,5.19-11.92q5.17-4.53,13.63-4.53,21.19,0,21.59,17.21h-6.84q-.31-5.77-4.38-8.68-3.62-2.61-9.75-2.62a14.4,14.4,0,0,0-8.95,2.77,8.35,8.35,0,0,0-3.65,6.91q0,5.54,7.37,7.45l17.52,4.61a13.83,13.83,0,0,1,7.45,5A14.79,14.79,0,0,1,359.22,1243.58Z" />
      <path class="cls-49" d="M408.3,1209.09H390v49.62H382.8v-49.62H364.37v-6.38H408.3Z" />
      <path class="cls-50" d="M456.77,1258.71H416.6v-56h38.87v6.38H423.82v17.67h30.42v6.37H423.82v19.2h32.95Z" />
      <path class="cls-51" d="M513.08,1258.71H504.4a27.77,27.77,0,0,1-1.39-5.22,40.82,40.82,0,0,1-.23-8.68q-.3-10.14-8.68-10.14H475.28v24h-7.22v-56h25.66q9.67,0,13.75,4.38,3.45,3.77,3.45,11.45,0,7.29-7.29,12.52a17.89,17.89,0,0,1,5,4.45,11.83,11.83,0,0,1,1.23,4.92c0,2.35.26,6.25.61,11.67a6.81,6.81,0,0,0,2.62,4.77Zm-9.38-41.09a7.74,7.74,0,0,0-2.68-6.26,10.51,10.51,0,0,0-7-2.27H475.28v19.2H494.1Q503.7,1228.29,503.7,1217.62Z" />
      <path class="cls-52" d="M531.28,1258.71h-7.22v-56h7.22Z" />
      <path class="cls-53" d="M587.35,1258.71h-8.22L550.79,1214v44.7h-7.22v-56h8.52l28,45.24v-45.24h7.22Z" />
      <path class="cls-54" d="M647.73,1259h-4.61l-1.69-6.92a38.67,38.67,0,0,1-9.57,6.57,24.85,24.85,0,0,1-9.79,1.73q-11.52,0-18.59-8.22-6.84-7.9-6.84-20.43,0-13.21,6.84-21.2,7.46-8.76,21.12-8.76,11.14,0,17.36,6.84a17.6,17.6,0,0,1,5,11h-6.84A14,14,0,0,0,634,1211a18.82,18.82,0,0,0-10.37-2.77,17.76,17.76,0,0,0-14.29,6.38q-5.39,6.38-5.38,16.74t5.38,16.64q5.37,6.26,14.29,6.26a18.24,18.24,0,0,0,12.21-4.31,15.69,15.69,0,0,0,5.53-12.52c0-.66,0-1.33-.08-2h-17V1229h23.51Z" />
      <path class="cls-55" d="M724.46,1258.71h-8L710.77,1242H689.29l-6,16.74h-7.68l20.35-56h8.84ZM708.58,1236l-8.24-24.61L691.23,1236Z" />
      <path class="cls-56" d="M775.16,1258.71h-8.22L738.59,1214v44.7h-7.22v-56h8.52L767.94,1248v-45.24h7.22Z" />
      <path class="cls-57" d="M832.23,1230.21q0,12.75-6.69,21.13-6,7.37-13.28,7.37H787.83v-56h22.74a19.34,19.34,0,0,1,14,6.15Q832.23,1216.47,832.23,1230.21Zm-7.22,0q0-10.21-4.31-15.82a13.56,13.56,0,0,0-11.29-5.3H795.05v43.24h16.28q6.45,0,10.14-6.22Q825,1240.13,825,1230.21Z" />
      <path class="cls-58" d="M916.26,1258.71h-7.38v-45.17l-15.28,45.17h-7.38l-15.28-45.4v45.4h-7.38v-56h10.21l16.15,47.71,16.14-47.71h10.2Z" />
      <path class="cls-59" d="M972,1258.71h-8L958.25,1242H936.78l-6,16.74h-7.69l20.36-56h8.83ZM956.06,1236l-8.23-24.61L938.71,1236Z" />
      <path class="cls-60" d="M1020.72,1243.58a14.58,14.58,0,0,1-6.07,12.17q-6.06,4.65-16.13,4.65-10.59,0-16.13-5.07T976.71,1241h6.6q.54,6.91,4.5,10.06t12.25,3.15a14.82,14.82,0,0,0,9.56-2.92,9.19,9.19,0,0,0,3.65-7.52q0-6-8.22-8.13l-15.21-4q-11.3-3-11.29-13.29a15.08,15.08,0,0,1,5.19-11.92q5.18-4.53,13.63-4.53,21.2,0,21.58,17.21h-6.83q-.32-5.77-4.38-8.68-3.62-2.61-9.76-2.62a14.39,14.39,0,0,0-8.94,2.77,8.35,8.35,0,0,0-3.65,6.91q0,5.54,7.37,7.45l17.51,4.61a13.82,13.82,0,0,1,7.46,5A14.79,14.79,0,0,1,1020.72,1243.58Z" />
      <path class="cls-61" d="M1081.25,1231.6q0,12.9-7.49,20.85t-19.78,8q-12,0-19.39-8.1t-7.42-21.17q0-12.59,6.76-20.66,7.38-8.6,20.13-8.6,13,0,20.43,8.91Q1081.24,1218.93,1081.25,1231.6Zm-7.3-.7q0-9.83-5.3-16.2t-14.21-6.38q-9.68,0-15,6.68-4.92,6.15-4.92,16.13,0,10.38,5.38,16.63t14.36,6.26q9.68,0,15-7Q1073.94,1240.74,1074,1230.9Z" />
      <path class="cls-62" d="M1133.63,1258.71h-8.21l-28.35-44.7v44.7h-7.22v-56h8.52l28,45.24v-45.24h7.22Z" />
      <path class="cls-63" d="M1191.63,1258.71H1183a27.77,27.77,0,0,1-1.39-5.22,41.5,41.5,0,0,1-.23-8.68q-.3-10.14-8.68-10.14h-18.81v24h-7.23v-56h25.66q9.68,0,13.75,4.38,3.45,3.77,3.46,11.45,0,7.29-7.3,12.52a17.89,17.89,0,0,1,5,4.45,11.53,11.53,0,0,1,1.23,4.92c0,2.35.26,6.25.61,11.67a6.81,6.81,0,0,0,2.62,4.77Zm-9.37-41.09a7.74,7.74,0,0,0-2.69-6.26,10.51,10.51,0,0,0-7-2.27h-18.74v19.2h18.81Q1182.25,1228.29,1182.26,1217.62Z" />
      <path class="cls-64" d="M1245.7,1202.71l-21.12,34v22h-7.22v-22l-21.43-34h8.83l16.2,27.19,15.88-27.19Z" />
      <path class="cls-65" d="M1308.46,1258.71h-34.8v-56h7.22v49.62h27.58Z" />
      <path class="cls-66" d="M1351.16,1258.71h-34.79v-56h7.22v49.62h27.57Z" />
      <path class="cls-67" d="M1405,1238.2q-5.15,22.2-23.66,22.2-11.13,0-17.93-8t-6.8-21.16q0-12.43,6.14-20.51,6.77-8.84,18.67-8.83a21.46,21.46,0,0,1,13.71,4.65q5.88,4.65,8.72,13.48h-7.53q-4.53-11.76-15.21-11.76a14.7,14.7,0,0,0-12.44,6.38q-4.7,6.38-4.69,17,0,9.9,4.8,16.16a15.08,15.08,0,0,0,12.56,6.26q12.53,0,16.29-15.82Z" />
      <path class="cls-68" d="M564.75,1472.86c-5,0-9-1.24-11.93-3.7a15,15,0,0,1-5.24-10.39l-.24-2.21H558.8l.23,1.73c.27,2,1.25,4.34,6.43,4.34a8.52,8.52,0,0,0,4.53-1,2,2,0,0,0,1.16-1.89c0-.81,0-2.51-3.62-3.19l-9.17-1.75a12.68,12.68,0,0,1-7.24-4,10.88,10.88,0,0,1-2.88-7.51,12.57,12.57,0,0,1,4.5-10.18c2.88-2.39,6.8-3.6,11.65-3.6,5.18,0,9.32,1.2,12.29,3.57,3.12,2.49,4.68,6,4.65,10.49l0,2H570.23l-.11-1.88a3.49,3.49,0,0,0-1.52-2.82,7.54,7.54,0,0,0-4.51-1.22c-4.59,0-4.59,1.85-4.59,2.84,0,.46,0,1.52,2.88,2.11l7.93,1.65c4,.83,6.79,2,8.61,3.52,2.38,2,3.59,5,3.59,8.84a12.69,12.69,0,0,1-4.93,10.64C574.48,1471.65,570.16,1472.86,564.75,1472.86Z" />
      <rect class="cls-69" x="606.16" y="1430.14" width="11.72" height="41.53" />
      <polygon class="cls-70" points="667.07 1471.68 655.05 1450.91 655.05 1471.68 643.33 1471.68 643.33 1430.14 654.09 1430.14 666.13 1450.56 666.13 1430.14 677.86 1430.14 677.86 1471.68 667.07 1471.68" />
      <path class="cls-71" d="M720.39,1472.81a16.8,16.8,0,0,1-13.59-6.08c-3.24-3.92-4.88-9.23-4.88-15.79,0-6.12,1.62-11.19,4.83-15.07,3.47-4.21,8.3-6.34,14.36-6.34a19,19,0,0,1,12.55,4.14,14.36,14.36,0,0,1,5.31,11.14l0,2H727.8l-.18-1.79a5.21,5.21,0,0,0-2-3.62,6.51,6.51,0,0,0-4.35-1.49,6.58,6.58,0,0,0-5.63,2.75c-1.5,2-2.26,4.84-2.26,8.43s.75,6.37,2.23,8.36a6.29,6.29,0,0,0,5.4,2.72,6.78,6.78,0,0,0,4.58-1.57,5.07,5.07,0,0,0,1.86-3.89l.09-1.9h11.59l-.22,2.2c-.54,5.25-2.6,9.29-6.12,12C729.64,1471.56,725.45,1472.81,720.39,1472.81Z" />
      <polygon class="cls-72" points="763.54 1471.68 763.54 1430.14 794.73 1430.14 794.73 1440.58 775.26 1440.58 775.26 1445.13 793.23 1445.13 793.23 1455.56 775.26 1455.56 775.26 1461.24 795.6 1461.24 795.6 1471.68 763.54 1471.68" />
      <path class="cls-73" d="M854.91,1471.68l.12-2.12c.34-6.07,2.07-10.34,5.15-12.69l8.1-6.23c2.86-2.2,4.3-4.44,4.3-6.65a4,4,0,0,0-.93-2.77,2.64,2.64,0,0,0-2.15-1,2.43,2.43,0,0,0-2,.67c-.52.55-1.13,1.82-1,4.77l.09,2.08h-11l-.06-1.94c-.16-5,1.06-8.85,3.63-11.57s5.91-3.93,10.21-3.93a15.15,15.15,0,0,1,10.35,3.56,12,12,0,0,1,4.16,9.41,17,17,0,0,1-.75,5.75,14.94,14.94,0,0,1-2.74,4,30,30,0,0,1-4.66,4.25c-1.65,1.23-3.27,2.45-4.83,3.66l-.32.25H884v10.44Z" />
      <path class="cls-74" d="M920.92,1472.86c-5.81,0-10.09-2.53-12.36-7.32-1.55-3.21-2.3-7.77-2.3-13.93s.75-10.73,2.3-13.95c2.27-4.78,6.55-7.31,12.36-7.31s10.08,2.54,12.32,7.33c1.44,3.16,2.14,7.71,2.14,13.93s-.7,10.76-2.14,13.9C931,1470.33,926.74,1472.86,920.92,1472.86Zm0-31.92c-1.91,0-2.47.86-2.79,1.79s-.67,3.19-.67,8.88c0,6,.45,8.11.71,8.85.36,1.11,1,1.81,2.75,1.81s2.34-.7,2.68-1.76c.21-.68.57-2.8.57-8.9s-.36-8.23-.58-8.95C923.25,1441.65,922.67,1440.94,920.92,1440.94Z" />
      <path class="cls-75" d="M968.29,1471.68v-25.23h-8.75V1438l1.81-.18c4-.39,5.84-1,6.69-1.43a7.23,7.23,0,0,0,3-3.89l.49-1.27h8v40.5Z" />
      <path class="cls-76" d="M1019.57,1471.68v-25.23h-8.75V1438l1.8-.18c4-.39,5.85-1,6.7-1.43a7.23,7.23,0,0,0,3-3.89l.49-1.27h7.95v40.5Z" />
      <path class="cls-77" d="M580.51,1458.61a10.76,10.76,0,0,1-4.15,9.06q-4.14,3.19-11.61,3.19-6.74,0-10.65-3.24a13,13,0,0,1-4.53-9.06h7.48q.83,6.07,8.41,6.07a10.5,10.5,0,0,0,5.6-1.31,4.07,4.07,0,0,0,2.09-3.59q0-4.17-5.25-5.16l-9.17-1.74a10.69,10.69,0,0,1-6.12-3.35,8.88,8.88,0,0,1-2.37-6.17,10.62,10.62,0,0,1,3.78-8.64q3.78-3.15,10.37-3.14,7.11,0,11.05,3.14t3.89,8.9h-7.21a5.51,5.51,0,0,0-2.35-4.32,9.41,9.41,0,0,0-5.68-1.6c-4.4,0-6.59,1.62-6.59,4.84,0,2.1,1.49,3.45,4.47,4.07l7.93,1.65c3.61.75,6.18,1.78,7.73,3.09C579.55,1453,580.51,1455.38,580.51,1458.61Z" />
      <path class="cls-78" d="M615.88,1469.68h-7.72v-37.53h7.72Z" />
      <path class="cls-79" d="M675.86,1469.68h-7.64l-15.17-26.22v26.22h-7.72v-37.53H653l15.18,25.74v-25.74h7.73Z" />
      <path class="cls-80" d="M737,1456.86q-.72,7-5.36,10.66-4.27,3.29-11.22,3.29-7.62,0-12-5.35t-4.42-14.52q0-8.51,4.37-13.8,4.63-5.61,12.82-5.61a17.08,17.08,0,0,1,11.28,3.68,12.38,12.38,0,0,1,4.58,9.65h-7.36a7.19,7.19,0,0,0-2.65-4.94,9.12,9.12,0,0,0-12.88,1.6q-2.64,3.54-2.65,9.62t2.63,9.55a8.3,8.3,0,0,0,7,3.53,8.84,8.84,0,0,0,5.87-2,7.1,7.1,0,0,0,2.57-5.33Z" />
      <path class="cls-81" d="M793.6,1469.68H765.54v-37.53h27.19v6.43H773.26v8.55h18v6.43h-18v9.68H793.6Z" />
      <path class="cls-82" d="M882,1443.32a15.32,15.32,0,0,1-.62,5,13.18,13.18,0,0,1-2.37,3.4,27.89,27.89,0,0,1-4.35,4c-1.66,1.23-3.29,2.46-4.86,3.68a10.58,10.58,0,0,0-3.3,3.83H882v6.44H857q.47-8.23,4.36-11.23l8.11-6.23q5.09-3.9,5.09-8.23a6,6,0,0,0-1.44-4.1,4.68,4.68,0,0,0-3.65-1.62q-5.28,0-5,7.52h-6.93q-.2-6.64,3.09-10.14,3.15-3.3,8.76-3.3a13.16,13.16,0,0,1,9,3.06A10.06,10.06,0,0,1,882,1443.32Z" />
      <path class="cls-83" d="M933.38,1451.61q0,8.81-2,13.07-2.88,6.18-10.5,6.18t-10.55-6.18q-2.11-4.37-2.11-13.07t2.11-13.08q2.93-6.18,10.55-6.18t10.5,6.18Q933.39,1442.81,933.38,1451.61Zm-7.21,0c0-4.88-.22-8-.67-9.53a4.34,4.34,0,0,0-4.58-3.14,4.46,4.46,0,0,0-4.68,3.14c-.52,1.55-.78,4.72-.78,9.53s.28,8,.83,9.52c.68,2.1,2.23,3.14,4.63,3.14a4.33,4.33,0,0,0,4.58-3.14C926,1459.66,926.17,1456.48,926.17,1451.61Z" />
      <path class="cls-84" d="M977.5,1469.68h-7.21v-25.23h-8.75v-4.68a22.8,22.8,0,0,0,7.42-1.65,9.13,9.13,0,0,0,4-4.94h4.58Z" />
      <path class="cls-85" d="M1028.78,1469.68h-7.21v-25.23h-8.75v-4.68a22.66,22.66,0,0,0,7.41-1.65,9.1,9.1,0,0,0,4-4.94h4.58Z" />
      <path class="cls-86" d="M350.46,1150.86H55.64V756.5H341.27v67.62H136.78v89.8h188.8v67.62H136.78v101.7H350.46Z" />
      <path class="cls-87" d="M62.64,1143.86V763.5H334.27v53.62H136.78a7,7,0,0,0-7,7v89.8a7,7,0,0,0,7,7h181.8v53.62H136.78a7,7,0,0,0-7,7v101.7a7,7,0,0,0,7,7H343.46v53.62Z" />
      <path class="cls-88" d="M686.94,1150.86H417V756.5h81.14v326.74h188.8Z" />
      <path class="cls-89" d="M424,1143.86V763.5h67.14v319.74a7,7,0,0,0,7,7h181.8v53.62Z" />
      <path class="cls-90" d="M820,1150.86H738.86V756.5H820Z" />
      <rect class="cls-91" x="745.86" y="763.5" width="67.14" height="380.36" />
      <path class="cls-92" d="M1178.12,824.12H1062.9v326.74H981.75V824.12H862.2V756.5h315.92Z" />
      <path class="cls-93" d="M988.75,1143.86V824.12a7,7,0,0,0-7-7H869.2V763.5h301.92v53.62H1062.9a7,7,0,0,0-7,7v319.74Z" />
      <path class="cls-94" d="M1522.71,1150.86H1227.89V756.5h285.62v67.62H1309v89.8h188.79v67.62H1309v101.7h213.68Z" />
      <path class="cls-95" d="M1234.89,1143.86V763.5h271.62v53.62H1309a7,7,0,0,0-7,7v89.8a7,7,0,0,0,7,7h181.79v53.62H1309a7,7,0,0,0-7,7v101.7a7,7,0,0,0,7,7h206.68v53.62Z" />
      <path class="cls-96" d="M951,236.93h0l-.15,0Z" />
      <path class="cls-97" d="M602.47,462.31l7-2.63h-33l-.39-.39h34.39l11-4.11L600.11,434,622,412.27V455l3-1.14V211.06h0V117.8h45.78v-.29h196v.33H906.4v47.3h9.85v18a7.66,7.66,0,0,0-6.87,7.59v20.57a7.66,7.66,0,0,0,6.87,7.59v4.54a30.68,30.68,0,0,0-21.79,14.08,24.9,24.9,0,0,0,0,32.48,30.48,30.48,0,0,0,43.58,8.73h42a30.4,30.4,0,0,0,35.33,0h3.95v-.33a24.94,24.94,0,0,0,0-49.28v-.33h-28a25.36,25.36,0,0,1,6.38-.84,25.89,25.89,0,0,1,6.21.79h11.4a30.34,30.34,0,0,0-15.73-5.53v-4.3a7.66,7.66,0,0,0,6.89-7.6V190.74a7.66,7.66,0,0,0-6.89-7.59v-18h10.16v-47.3h3V65.34h-1.07v-.06l-2.54-.75-.17,0a66,66,0,0,1-8.54.63l.52.16H866.74v0h-196V65.3H600.54V3.67l5.35,1.59a35,35,0,0,1-.8-3.48L600.54.43V.07h-1.22L599.1,0V.07H572.21V.54L366,104l0,0h-.05l-12.53,13.73H572.48v93.26h0V459.68H572v7.81h-7v2.44l26.48,4.23A18.06,18.06,0,0,1,602.47,462.31ZM833,114.49h-9.84l20.35-20.2L845,95.81l18.82,18.68Zm12.65-22.31,8.18-8.11,13-12.9.69.69v41l-.52.52-20.17-20ZM870.51,74.9l17.32,17.44-17.32,17.44Zm0,39.93v-.78L890,94.48l20.21,20.35Zm41.88,96.48V190.74a4.68,4.68,0,0,1,4.67-4.67H919a4.68,4.68,0,0,1,4.67,4.67v20.57A4.67,4.67,0,0,1,919,216h-1.92A4.67,4.67,0,0,1,912.39,211.31Zm6.49-96.48,20.21-20.35,20.21,20.35Zm1.51,164.73a25.52,25.52,0,0,1-6.4-.83h12.77A25.75,25.75,0,0,1,920.39,279.56Zm83.67-.83a25.83,25.83,0,0,1-6.38.83,25.44,25.44,0,0,1-6.39-.83Zm-8-55.51a30.4,30.4,0,0,0-16,5.57H914a25.44,25.44,0,0,1,6.39-.84,26,26,0,0,1,6.21.79H938a30.46,30.46,0,0,0-17.61-5.61l-.6,0V218.9a7.66,7.66,0,0,0,6.87-7.59V190.74a7.66,7.66,0,0,0-6.87-7.59v-18h10.43v-47.3H985.9v47.3H996v18a7.65,7.65,0,0,0-6.84,7.59v20.57A7.65,7.65,0,0,0,996,218.9Zm7.42-32.48v20.57a4.67,4.67,0,0,1-4.67,4.66h-1.92a4.67,4.67,0,0,1-4.67-4.66V190.74a4.68,4.68,0,0,1,4.67-4.67h1.92A4.68,4.68,0,0,1,1003.44,190.74ZM968,114.83l20.21-20.35,20.21,20.35Zm42.52-2.15L990.36,92.34,1010.55,72Zm-.61-44.33-21.7,21.86-21.7-21.86Zm-45.52,2.13,21.7,21.86-21.7,21.86Zm-3,42.2-20.2-20.34L961.41,72Zm-.62-44.33-21.7,21.86-21.7-21.86Zm-45.52,2.13L937,92.34l-21.7,21.86Zm-3,42.2L892.07,92.34,912.26,72ZM890,90.21,870.51,70.63V68.35h41.14ZM865.36,68.34,843.5,90l-21.85-21.7ZM821,72l20.35,20.22L821,112.38Zm-47.35,42.53L794,94.29l20.35,20.2Zm44.34-.63L796.14,92.18,818,70.48Zm-2.14-45.52L794,90l-21.85-21.7ZM771.52,72l20.34,20.22-20.34,20.2Zm-47.36,42.53,20.35-20.2,20.34,20.2Zm44.34-.63L746.65,92.18l21.85-21.7Zm-2.14-45.52L744.51,90l-21.86-21.7ZM722,72l20.34,20.22L722,112.38Zm-47.36,42.53L695,94.29l20.35,20.2Zm44.34-.63L697.15,92.18,719,70.48Zm-2.14-45.52L695,90l-21.86-21.7ZM672.52,72l20.35,20.22-20.35,20.2ZM628,114.79l20.21-20.36,20.22,20.36Zm41.53-3.15L650.3,92.3,669.5,73Zm0-43.33v.38L648.18,90.16l-21.7-21.85ZM625,71.06,646.07,92.3,625,113.54Zm-264.9,43.8,3.62-4,2.66,4Zm5.66-6.2,1.65-1.8v0l.15-.08,5.39-.86-4.18,7.23Zm5.44,6.2,4.93-8.54,9.21,8.54ZM379,105,397.18,102l-8.35,12.06Zm12.91,9.89L400.1,103l13,11.87Zm10.61-13.67,27.16-4.37-13,17.33Zm17.3,13.67L433.19,97l18.49,17.85Zm16.36-19.08,37.51-6-18.51,24.38Zm39.28,19.08H458.28l17.15-22.57ZM500.14,92.3l-21.7,21.85V70.44Zm-19.59-24H524L502.25,90.16ZM482,114.79l20.21-20.36,20.22,20.36Zm42.53-2.15L504.37,92.3,524.57,72ZM547.78,92.3l-20.2,20.34V72Zm-19.59-24H571.6L549.9,90.16Zm1.49,46.48L549.9,94.43l20.21,20.36Zm42.53-2.15L552,92.3,572.21,72Zm0-47.34H475.43V86.49l-99.14,15.93L572.21,4.11Zm27.9,172.59L622,216.19v43.38Zm18.21,22.31h-40.7L598,240Zm1.51-46.15L598,235.75l-21.85-21.7Zm-44.35,3.61,20.35,20.23-20.35,20.2Zm45.43-6.6-20.8-20.64L622,168.72v42.34ZM576.46,117.8h43L598,139.15Zm41.86,45.79H577.63L598,143.39Zm-39.15-49.14L598.6,94.87l19.72,19.58Zm-3.68-2.11V71.92l20.35,20.21Zm20.35,28.93-20.35,20.21V121.06ZM576.12,166.6h43.71L598,188.3Zm19.72,23.82-20.35,20.21V170.21ZM622,163l-21.86-21.7L622,119.57Zm-.61-50.33L601.16,92.3,621.36,72ZM600.54,68.31h19.3l-21.4,21.24-21.1-21.24ZM575.22,3.07h22.32V20.28H575.22Zm0,20.22h22.32V43.17H575.22Zm0,23.07h22.32V65.3H575.22ZM598,192.54l18.65,18.52H579.32Zm20.34,263.74h-40.7L598,436.08Zm-22.49-71.45L575.48,405V364.61ZM576.12,361h43.71L598,382.69ZM598,386.94l20.35,20.2h-40.7Zm2.14-2.11L622,363.13v43.38ZM622,357.37l-21.86-21.7L622,314Zm-26.14-70.24-20.35,20.2V266.91Zm-19.71-23.84h43.71L598,285ZM598,289.24l20.35,20.2h-40.7Zm2.14-2.11L622,265.43v43.38Zm19.11,25.33L598,333.56l-21.25-21.1Zm-23.39,23.21-20.35,20.22V315.47Zm2.14,2.14L618.32,358h-40.7Zm21.86,72.35L598,431.86l-21.85-21.7Zm-44.35,3.58L595.83,434l-20.35,20.2Z" />
      <path class="cls-98" d="M277.42,559.72l7.21.89A26.14,26.14,0,0,0,277.42,559.72Z" />
      <path class="cls-99" d="M483.39,510.21c-3.06-.71-6.12-1.43-9.18-2.11l-4.28-3.84h0c-2.66-2.52-4.58-4.43-6.61-6.22q-60.53-53.25-121.09-106.48c-3-2.64-6.09-4.86-6.85-9.39-.52-3.13-24.14-18.11-27.31-18.05a2.48,2.48,0,0,0-.91.09c-6.62,2.93-11.05-1-15.73-4.74-3.08-2.44-6.48-7.29-10-5.69-8.9,4.07-18.25,1.27-26.89,3.14C225.88,363.13,197.16,369,169,377.12c-16.88,4.84-16.69,4.41-18.18,21.87-1.36,15.79-3.49,31.51-5.33,47.71-28.4-6.71-54.3-17.16-84-19.85,3.86,6.45,8,7.07,11.65,8.24q29.55,9.44,59.16,18.72c14.2,4.43,14.61,5.16,9.73,20.85-10.7-2.56-21.46-5.1-32.21-7.67-30.6-7.34-61.18-14.83-91.85-21.9C12.47,443.84,6.5,441,0,445.73a24.58,24.58,0,0,0,3.87,2.17c49.69,14.89,99.76,28.27,150.65,38.43.54.1,1.17.24,1.81.35a.32.32,0,0,0,.14,0L158,487l5.41.82,6.45-4.3,91.77-1.91,2.71-39c3.59-10.48,11.75-18,21-25.24,7.43,10.12,18.43,13.81,27.13,20.64q36.81,28.91,73.78,57.59c1.51,1.18,3,2.41,4.5,3.59L395,504l-14.78-1.68-21.13,70c-2.55,0-5.46,0-8.82-.09h-.11a3.62,3.62,0,0,1-.89-.22l-1.05-9-26.31-.32-1.67,11.09-17.65.3-.06-.09-8.77-12.3-9.16-1.12-7.21-.89c1.19-8,.29-14.68-.28-21.41-.46-5.31-3-6.51-7.34-3.43-4,2.82-3.15,25.15,1.12,27.44,1.12.6,2.61.46,4,.57h0l13.61,3.82,2.17,3.34c-5.39,2-4.9,6.74-4.77,11.44.15,5.24-.17,10.51.1,15.75.17,3.31-.89,5.88-3.34,6.86l-2,.42s-19.29-1-31.43,11.83a33.39,33.39,0,0,0-7.5,6.17,31.9,31.9,0,0,0-6.09,9.87c-3.21,8.2-3.47,19.91-2.82,30.17a24.08,24.08,0,0,0,23.58,22.58l60.84,1.11a23.87,23.87,0,0,0,15.57-5.35l.12-.09,1-.85.06-.06,89.47-77.72,77.71-78.95C499.86,514.17,497.12,513.46,483.39,510.21ZM159.13,474.15h-7l9.87-87,7.65-1.91Zm8.28,0,10.52-91.45,10.19-2.23-10.19,93.68Zm16.73,0,11-95,10.19-2.22-10.66,97.26Zm19,0,11.31-99.34,10.19-2.22-11,101.56Zm18.32-.4,11.63-103,10.19-2.23-11.3,105.23Zm29,0H239.9l12.26-107.06,10.2-2.23Z" />
      <path class="cls-100" d="M552.47,305.35V282.26L368.8,388.3l15.86,13.94Z" />
      <path class="cls-101" d="M789.17,168.7l92,53.11a51,51,0,0,1,8.31-8.12c-.06-.78-.1-1.58-.1-2.38v-7.85L789.17,145.6,645,228.85v23.09Z" />
      <path class="cls-102" d="M150,537.73l60.81-35.1-34.67.72-1.6,1.06a19.91,19.91,0,0,1-11.09,3.36c-.49,0-1,0-1.46,0l-32,18.47V736.5h20Z" />
      <polygon class="cls-103" points="1428.36 1170.86 1428.36 1275.81 789.17 1644.85 149.98 1275.81 149.98 1170.86 129.98 1170.86 129.98 1287.35 789.17 1667.94 1448.36 1287.35 1448.36 1170.86 1428.36 1170.86" />
      <path class="cls-104" d="M1027,297.2a19.81,19.81,0,0,1-6,1.46c-1.22.64-2.47,1.2-3.74,1.74l411.08,237.33v157.1l7.79,1.56q6.11,1.25,12.21,2.57V526.19L1040.83,290.9A44.85,44.85,0,0,1,1027,297.2Z" />
      <path class="cls-105" d="M984.91,550.55l87.36,102.28c35.58-34.28,68.12-68.9,103.39-102.42,5.89,5.71,10.55,10.12,15.08,14.66,34.7,34.82,69.56,69.5,103.93,104.66,7.55,7.72,15.91,11.6,26.32,12.32,5.39.37,10.75,1.21,18.6,2.13-14.7-14.67-27.76-27.74-40.85-40.76q-55.5-55.2-110.94-110.42c-8.2-8.21-16.28-12.41-28.92-10.21-41.86,7.3-84,13.06-126,19.57C1017.73,544.71,1002.62,547.51,984.91,550.55Z" />
      <path class="cls-106" d="M609.55,470.84c53.93,8.34,104.54,15.11,154.67,24.48,17.29,3.23,28.38-1.76,39.53-13.07,6.32-6.41,14-11.43,21.13-17.07l1.83,2.29-30.65,31.91c8,1.31,13.9,1.7,19.47,3.34,8.17,2.4,13.93.41,20-5.81,26.91-27.71,54.29-55,81.58-82.28,11.93-11.94,24-23.7,37.08-36.53l140.72,141.23,32.06-5.36L953.46,341.59" />
      <path class="cls-107" d="M355.81,683.8c6.63-1,15.46-2.94,24.36-3.36,10.38-.48,17.36-5.45,24.39-12.62,41.77-42.63,83.93-84.87,126.05-127.15,8.37-8.4,17.11-16.44,26.25-25.19,11.27,11.12,21.66,21.2,31.87,31.46q50.44,50.68,100.86,101.38c2.69,2.69,6.45,5.76,9.89,6,9.74.66,19.59-.06,33.11-.3l-53-53.4,2.46-2.26c17.08,14.63,34.53,28.84,51.07,44,8.81,8.1,18,10.68,29.85,10.48,93.87-1.58,187.72-1.07,281.5,4.23,2.55.15,5.16-.57,9.77-1.13l-30.59-36Q994,585,964.22,550c-5.24-6.15-10.83-10.74-19.79-12q-111.57-16.2-223-33.45c-54.39-8.36-108.71-17.21-163.65-25.93Z" />
      <path class="cls-108" d="M1189.27,682.14q-120.06-11.05-240.54-13.72c-124.57-2.59-249.12-1.53-373.45,8-41,3.13-82.12,5.86-123,10.31-65.36,7.11-130.53,15.9-194.94,29.38-26.4,5.52-52.59,12-78.88,18.11A37.45,37.45,0,0,0,193.59,736c55.11-3.53,110.16-8,165.32-10.56,83.77-3.85,167.6-6.72,251.43-9.32q74.53-2.31,149.15-2.46c63.28-.21,126.57.6,189.85.85,119.57.47,239,4,358.45,9.91,45.63,2.25,91.22,5.29,136.82,8.06,22,1.33,44,2.85,66,4.29.2-.92.39-1.83.59-2.75-26.33-6-52.55-12.63-79-18C1351.92,699.71,1270.79,689.66,1189.27,682.14Z" />
      <path class="cls-109" d="M546.83,549.47c5.14-5.13,10-10.59,14.75-15.7-7.48-10.69-11.69-3.24-16,1q-45.35,45-90.5,90.23c-16.27,16.26-32.45,32.59-49.77,50,12.14,3.39,18.21-2.57,24.38-8.74Q488.22,607.81,546.83,549.47Z" />
      <path class="cls-110" d="M1084.16,520.43l-129-131-7.74,8.2c4.66,3.95,8.7,7,12.26,10.46q23,22.65,45.84,45.57,31.3,31.41,62.45,63C1072.94,521.65,1078.26,524,1084.16,520.43Z" />
      <path class="cls-111" d="M1293.56,676.19a14.6,14.6,0,0,0-1.68-2.91Q1237.79,619.12,1183.63,565c-1.76-1.75-3.63-3.71-5.84-4.55-1.32-.51-3.4,1-8.13,2.6,7,7.15,12.2,12.44,17.43,17.67q44,44,88.13,88C1280.18,673.73,1284.82,679.8,1293.56,676.19Z" />
      <path class="cls-112" d="M944.39,472.33V446.09H926.25a8.11,8.11,0,0,0-8.1,8.11v18.13Z" />
      <path class="cls-113" d="M976.66,454.2a8.11,8.11,0,0,0-8.1-8.11H950.42v26.24h26.24Z" />
      <rect class="cls-114" x="918.15" y="478.36" width="26.24" height="26.24" />
      <rect class="cls-115" x="950.42" y="478.36" width="26.24" height="26.24" />
      <path class="cls-116" d="M558.59,615.82V589.57h-16.7a7.47,7.47,0,0,0-7.47,7.47v18.78Z" />
      <path class="cls-117" d="M564.14,615.82h24.17V597a7.47,7.47,0,0,0-7.47-7.47h-16.7Z" />
      <rect class="cls-118" x="534.42" y="621.85" width="24.17" height="26.24" />
      <rect class="cls-119" x="564.14" y="621.85" width="24.17" height="26.24" />
      <path class="cls-120" d="M1196.6,607.15a7.46,7.46,0,0,0-7.46-7.47h-16.71v26.24h24.17Z" />
      <path class="cls-121" d="M1166.88,599.68h-16.7a7.47,7.47,0,0,0-7.47,7.47v18.77h24.17Z" />
      <rect class="cls-122" x="1172.43" y="631.95" width="24.17" height="26.24" />
      <rect class="cls-123" x="1142.71" y="631.95" width="24.17" height="26.24" />
      <path class="cls-124" d="M984.91,550.55l87.36,102.28c35.58-34.28,68.12-68.9,103.39-102.42,5.89,5.71,10.55,10.12,15.08,14.66,34.7,34.82,69.56,69.5,103.93,104.66,7.55,7.72,15.91,11.6,26.32,12.32,5.39.37,10.75,1.21,18.6,2.13-14.7-14.67-27.76-27.74-40.85-40.76q-55.5-55.2-110.94-110.42c-8.2-8.21-16.28-12.41-28.92-10.21-41.86,7.3-84,13.06-126,19.57C1017.73,544.71,1002.62,547.51,984.91,550.55Z" />
      <path class="cls-124" d="M609.55,470.84c53.93,8.34,104.54,15.11,154.67,24.48,17.29,3.23,28.38-1.76,39.53-13.07,6.32-6.41,14-11.43,21.13-17.07l1.83,2.29-30.65,31.91c8,1.31,13.9,1.7,19.47,3.34,8.17,2.4,13.93.41,20-5.81,26.91-27.71,54.29-55,81.58-82.28,11.93-11.94,24-23.7,37.08-36.53l140.72,141.23,32.06-5.36L953.46,341.59" />
      <path class="cls-124" d="M355.81,683.8c6.63-1,15.46-2.94,24.36-3.36,10.38-.48,17.36-5.45,24.39-12.62,41.77-42.63,83.93-84.87,126.05-127.15,8.37-8.4,17.11-16.44,26.25-25.19,11.27,11.12,21.66,21.2,31.87,31.46q50.44,50.68,100.86,101.38c2.69,2.69,6.45,5.76,9.89,6,9.74.66,19.59-.06,33.11-.3l-53-53.4,2.46-2.26c17.08,14.63,34.53,28.84,51.07,44,8.81,8.1,18,10.68,29.85,10.48,93.87-1.58,187.72-1.07,281.5,4.23,2.55.15,5.16-.57,9.77-1.13l-30.59-36Q994,585,964.22,550c-5.24-6.15-10.83-10.74-19.79-12q-111.57-16.2-223-33.45c-54.39-8.36-108.71-17.21-163.65-25.93Z" />
      <path class="cls-124" d="M1189.27,682.14q-120.06-11.05-240.54-13.72c-124.57-2.59-249.12-1.53-373.45,8-41,3.13-82.12,5.86-123,10.31-65.36,7.11-130.53,15.9-194.94,29.38-26.4,5.52-52.59,12-78.88,18.11A37.45,37.45,0,0,0,193.59,736c55.11-3.53,110.16-8,165.32-10.56,83.77-3.85,167.6-6.72,251.43-9.32q74.53-2.31,149.15-2.46c63.28-.21,126.57.6,189.85.85,119.57.47,239,4,358.45,9.91,45.63,2.25,91.22,5.29,136.82,8.06,22,1.33,44,2.85,66,4.29.2-.92.39-1.83.59-2.75-26.33-6-52.55-12.63-79-18C1351.92,699.71,1270.79,689.66,1189.27,682.14Z" />
      <path class="cls-124" d="M546.83,549.47c5.14-5.13,10-10.59,14.75-15.7-7.48-10.69-11.69-3.24-16,1q-45.35,45-90.5,90.23c-16.27,16.26-32.45,32.59-49.77,50,12.14,3.39,18.21-2.57,24.38-8.74Q488.22,607.81,546.83,549.47Z" />
      <path class="cls-124" d="M1084.16,520.43l-129-131-7.74,8.2c4.66,3.95,8.7,7,12.26,10.46q23,22.65,45.84,45.57,31.3,31.41,62.45,63C1072.94,521.65,1078.26,524,1084.16,520.43Z" />
      <path class="cls-124" d="M1293.56,676.19a14.6,14.6,0,0,0-1.68-2.91Q1237.79,619.12,1183.63,565c-1.76-1.75-3.63-3.71-5.84-4.55-1.32-.51-3.4,1-8.13,2.6,7,7.15,12.2,12.44,17.43,17.67q44,44,88.13,88C1280.18,673.73,1284.82,679.8,1293.56,676.19Z" />
      <path class="cls-124" d="M944.39,472.33V446.09H926.25a8.11,8.11,0,0,0-8.1,8.11v18.13Z" />
      <path class="cls-124" d="M976.66,454.2a8.11,8.11,0,0,0-8.1-8.11H950.42v26.24h26.24Z" />
      <rect class="cls-124" x="918.15" y="478.36" width="26.24" height="26.24" />
      <rect class="cls-124" x="950.42" y="478.36" width="26.24" height="26.24" />
      <path class="cls-124" d="M558.59,615.82V589.57h-16.7a7.47,7.47,0,0,0-7.47,7.47v18.78Z" />
      <path class="cls-124" d="M564.14,615.82h24.17V597a7.47,7.47,0,0,0-7.47-7.47h-16.7Z" />
      <rect class="cls-124" x="534.42" y="621.85" width="24.17" height="26.24" />
      <rect class="cls-124" x="564.14" y="621.85" width="24.17" height="26.24" />
      <path class="cls-124" d="M1196.6,607.15a7.46,7.46,0,0,0-7.46-7.47h-16.71v26.24h24.17Z" />
      <path class="cls-124" d="M1166.88,599.68h-16.7a7.47,7.47,0,0,0-7.47,7.47v18.77h24.17Z" />
      <rect class="cls-124" x="1172.43" y="631.95" width="24.17" height="26.24" />
      <rect class="cls-124" x="1142.71" y="631.95" width="24.17" height="26.24" />
      <path class="cls-125" d="M333,680.81l-.12.1h0Z" />
    </g>
  </g>
</svg>